<svg width="22" height="20" viewBox="0 0 22 20" fill="none" xmlns="http://www.w3.org/2000/svg">
<path d="M1.66671 11.3333H17.48L12.64 17.1466C12.528 17.2815 12.4436 17.437 12.3916 17.6045C12.3397 17.7719 12.3212 17.948 12.3373 18.1225C12.3699 18.4751 12.5411 18.8003 12.8134 19.0266C13.0857 19.2529 13.4367 19.3618 13.7893 19.3293C14.1418 19.2968 14.4671 19.1256 14.6934 18.8533L21.36 10.8533C21.4049 10.7897 21.445 10.7228 21.48 10.6533C21.48 10.5866 21.5467 10.5466 21.5734 10.48C21.6338 10.3271 21.6654 10.1643 21.6667 9.99996C21.6654 9.83558 21.6338 9.67284 21.5734 9.51996C21.5734 9.4533 21.5067 9.4133 21.48 9.34663C21.445 9.27711 21.4049 9.21026 21.36 9.14663L14.6934 1.14663C14.568 0.996118 14.411 0.875078 14.2336 0.792117C14.0561 0.709155 13.8626 0.66631 13.6667 0.666629C13.3552 0.66602 13.0533 0.77452 12.8134 0.973295C12.6784 1.08523 12.5668 1.22269 12.485 1.37782C12.4032 1.53295 12.3528 1.7027 12.3367 1.87733C12.3206 2.05197 12.3391 2.22807 12.3911 2.39554C12.4432 2.56301 12.5278 2.71856 12.64 2.8533L17.48 8.66663H1.66671C1.31309 8.66663 0.973947 8.80711 0.723899 9.05715C0.47385 9.3072 0.333374 9.64634 0.333374 9.99996C0.333374 10.3536 0.47385 10.6927 0.723899 10.9428C0.973947 11.1928 1.31309 11.3333 1.66671 11.3333Z" fill="black"/>
</svg>
