<svg width="64" height="52" viewBox="0 0 64 52" fill="none" xmlns="http://www.w3.org/2000/svg">
<path d="M63.5567 18.9398C62.8511 18.045 61.5541 17.892 60.6595 18.5971L51.4219 25.8807C52.3039 26.4572 53.0776 27.2294 53.67 28.1835C53.838 28.4535 53.9838 28.7312 54.1134 29.0128L63.2142 21.837C64.109 21.1317 64.2622 19.8344 63.5567 18.9398Z" fill="black"/>
<path d="M18.9686 15.4383C23.2318 15.4383 26.6878 11.9823 26.6878 7.71916C26.6878 3.45599 23.2318 0 18.9686 0C14.7055 0 11.2495 3.45599 11.2495 7.71916C11.2495 11.9823 14.7055 15.4383 18.9686 15.4383Z" fill="black"/>
<path d="M45.3776 28.949C47.1255 27.8642 49.4213 28.4012 50.5063 30.1486C51.5914 31.896 51.0541 34.1925 49.307 35.2771L36.1084 43.4719C34.9607 44.1845 33.5198 44.2183 32.3417 43.5672C31.1614 42.9148 30.4261 41.675 30.4194 40.3265L30.351 26.7056C30.349 26.2756 29.9998 25.9285 29.5697 25.9295C29.1397 25.9302 28.7919 26.2788 28.7919 26.7088C28.7919 49.7111 28.8405 29.8119 28.8624 51.1227L9.06492 50.7601L9.06387 26.7037C9.06387 26.2976 8.73658 25.9674 8.3305 25.9645C7.92442 25.9614 7.59206 26.2867 7.58626 26.6928V26.7056L7.44873 44.3991C7.43858 46.4496 5.77292 48.1049 3.72487 48.1049H3.70577C1.64878 48.0945 -0.0101057 46.4187 4.63484e-05 44.3617L0.137582 26.6682C0.161995 21.8324 4.11597 17.8985 8.95147 17.8985H12.6898L17.3155 29.8948L16.3475 25.0189C16.2764 24.6607 16.3339 24.2885 16.5099 23.9682L18.0269 21.2093L16.6805 18.7607C16.4799 18.3962 16.7446 17.9495 17.1603 17.9495H20.8516C21.2676 17.9495 21.5318 18.3962 21.3314 18.7607L19.9877 21.2042L21.5018 23.958C21.6814 24.2844 21.7375 24.6643 21.6601 25.0288L20.5427 29.8948C23.1998 23.0035 22.1914 26.0172 25.3218 17.8985H28.986C33.8217 17.8985 37.7755 21.8326 37.7999 26.6682C37.8199 30.6966 37.8033 27.3769 37.8347 33.6322L45.3776 28.949Z" fill="black"/>
</svg>
