<svg width="375" height="304" viewBox="0 0 375 304" fill="none" xmlns="http://www.w3.org/2000/svg">
<path d="M320.829 115.417C318.743 118.721 316.29 121.78 313.517 124.537L320.829 115.417Z" fill="white"/>
<path d="M370.008 124.312L362.696 115.301L370.008 124.312Z" fill="white"/>
<path d="M279.191 44.9578H335.092V125.81H279.191V44.9578Z" fill="#E0E0E0"/>
<path d="M281.994 44.9578H337.895V125.81H281.994V44.9578Z" fill="#F5F5F5"/>
<path d="M288.935 53.713H330.948V117.048H288.935V53.713Z" fill="white"/>
<path d="M288.935 115.623C288.935 115.623 288.935 115.514 288.935 115.313C288.935 115.113 288.935 114.803 288.935 114.413C288.935 113.617 288.935 112.45 288.935 110.942C288.935 107.902 288.935 103.482 288.977 97.894C288.977 86.7251 289.014 70.9049 289.044 52.2941L288.904 52.4339H330.912L330.759 52.2819C330.759 76.1763 330.759 98.2041 330.759 115.623L330.881 115.502L300.299 115.563L291.853 115.593H289.635H288.867H289.611H291.804H300.225L330.881 115.654H331.003V115.532C331.003 98.1129 331.003 76.0851 331.003 52.1907V52.0387H330.845H288.837H288.697V52.288C288.697 70.9536 288.752 86.798 288.764 97.9913C288.764 103.567 288.794 107.975 288.807 111.003C288.807 112.504 288.807 113.659 288.807 114.45C288.807 114.833 288.807 115.131 288.807 115.331C288.807 115.532 288.935 115.623 288.935 115.623Z" fill="#E0E0E0"/>
<path d="M281.83 44.9578C282.119 45.4748 282.453 45.9651 282.829 46.423C283.475 47.2864 284.401 48.4659 285.449 49.7427C286.497 51.0195 287.484 52.1443 288.216 52.9469C288.583 53.4003 288.991 53.8195 289.434 54.1994C289.119 53.7062 288.762 53.2404 288.368 52.807L285.675 49.5482L282.994 46.271C282.644 45.8012 282.254 45.3618 281.83 44.9578Z" fill="#E0E0E0"/>
<path d="M281.391 124.561C281.86 124.223 282.289 123.834 282.671 123.4C283.645 122.412 284.568 121.375 285.437 120.293C286.449 119.022 287.296 117.812 287.874 116.919C288.207 116.447 288.493 115.944 288.728 115.417C288.351 115.851 288.006 116.312 287.698 116.797C287.088 117.66 286.211 118.84 285.206 120.098C284.2 121.357 283.225 122.463 282.518 123.254C282.112 123.662 281.735 124.099 281.391 124.561Z" fill="#E0E0E0"/>
<path d="M330.576 115.301C331.679 116.895 332.863 118.431 334.123 119.904C335.302 121.44 336.563 122.911 337.901 124.312C336.798 122.718 335.614 121.182 334.354 119.709C333.175 118.173 331.914 116.702 330.576 115.301Z" fill="#E0E0E0"/>
<path d="M337.895 44.9578C336.631 46.3105 335.443 47.7313 334.336 49.2138C333.15 50.6291 332.043 52.1088 331.021 53.6461C332.282 52.2931 333.468 50.8723 334.574 49.3901C335.761 47.9745 336.87 46.4948 337.895 44.9578Z" fill="#E0E0E0"/>
<path d="M302.023 66.5721H316.093V106.427H302.023V66.5721Z" fill="#E0E0E0"/>
<path d="M237.807 67.0806L243.492 62.4841L237.807 67.0806Z" fill="white"/>
<path d="M214.525 31.7437V67.1536H265.49L267.324 31.9929L214.525 31.7437Z" fill="#E0E0E0"/>
<path d="M267.33 31.9929V67.0745H216.366V31.9929H267.33Z" fill="white"/>
<path d="M216.122 67.3178H267.568V31.7498H216.122V67.3178ZM267.08 66.8374H216.603V32.224H267.08V66.8374Z" fill="#E0E0E0"/>
<path d="M221.88 36.3523H261.804V62.7152H221.88V36.3523Z" fill="white"/>
<path d="M221.88 36.3523H222.648H224.841H233.067L261.804 36.48L261.688 36.3645C261.688 44.4205 261.688 53.3459 261.688 62.7274L261.81 62.6058H221.886L221.99 62.7031C221.99 54.6835 221.947 48.1111 221.935 43.5207C221.935 41.2346 221.935 39.4471 221.935 38.2189C221.935 37.6109 221.935 37.1488 221.935 36.8266C221.935 36.5043 221.935 36.3402 221.935 36.3402C221.935 36.3402 221.935 36.4922 221.935 36.8023C221.935 37.1123 221.935 37.5805 221.935 38.1763C221.935 39.3923 221.935 41.1799 221.904 43.4599C221.904 48.0563 221.874 54.6592 221.856 62.7031V62.8064H221.953H261.877H262.005V62.6787C262.005 53.2973 262.005 44.3719 262.005 36.3159V36.2368H261.889L233.073 36.2915L224.872 36.328H222.703H221.965L221.88 36.3523Z" fill="#E0E0E0"/>
<path d="M267.324 31.8956C267.009 32.0468 266.714 32.2367 266.447 32.4611C265.929 32.838 265.228 33.3731 264.448 33.9811C263.668 34.5891 263.01 35.1971 262.535 35.6044C262.263 35.8247 262.018 36.0756 261.804 36.3523C262.775 35.6748 263.71 34.9483 264.607 34.1756C265.56 33.4739 266.468 32.7124 267.324 31.8956Z" fill="#E0E0E0"/>
<path d="M216.36 31.9929C217.198 32.8157 218.094 33.5776 219.041 34.2729C219.937 35.0318 220.886 35.7267 221.88 36.3523C221.042 35.5295 220.146 34.7676 219.199 34.0723C218.304 33.3117 217.355 32.6168 216.36 31.9929Z" fill="#E0E0E0"/>
<path d="M222.087 62.484C221.065 63.1528 220.088 63.8881 219.163 64.685C218.19 65.4208 217.268 66.2211 216.402 67.0805C217.425 66.4156 218.401 65.6801 219.321 64.8795C220.298 64.1467 221.223 63.3462 222.087 62.484Z" fill="#E0E0E0"/>
<path d="M267.324 67.0745C266.496 66.2618 265.61 65.51 264.674 64.8249C263.787 64.0726 262.848 63.3839 261.865 62.7638C262.69 63.5812 263.576 64.3352 264.515 65.0195C265.401 65.7711 266.339 66.4579 267.324 67.0745Z" fill="#E0E0E0"/>
<path d="M253.699 44.5665V53.3947H228.577V44.5665H253.699Z" fill="#E0E0E0"/>
<path d="M28.2942 190.407C28.2942 190.407 32.8703 188.279 36.4593 198.98C40.0483 209.681 41.1146 215.706 41.1146 215.706C41.1146 215.706 42.1444 217.992 43.7835 216.843C45.4226 215.694 47.9635 212.125 50.2973 213.195C52.631 214.265 53.1307 217.232 52.0278 221.3C50.9249 225.367 48.8349 234.36 48.6521 235.174C48.4693 235.989 48.7556 237.235 49.9926 236.634C51.2295 236.032 58.7975 229.8 61.5699 233.551C64.3424 237.302 59.3824 248.143 58.8645 249.322C58.3466 250.502 58.5111 251.086 59.0595 251.481C59.6079 251.876 61.9416 249.541 64.1657 247.833C66.3898 246.124 69.2597 244.586 70.6673 246.884C72.0748 249.183 71.3436 257.749 61.186 270.323L56.0981 275.837L48.7069 274.311C33.0897 270.086 27.4595 263.58 27.2462 260.893C27.0329 258.205 30.2929 257.792 33.0653 257.853C35.8378 257.914 39.1221 258.43 39.3293 257.786C39.5364 257.141 39.3292 256.57 38.2203 255.962C37.1113 255.354 26.7343 249.426 26.7465 244.775C26.7587 240.123 36.5507 240.744 37.9095 240.519C39.2683 240.294 38.7565 239.09 38.141 238.549C37.5256 238.008 30.5305 231.94 27.2462 229.295C23.9619 226.65 22.5604 224.03 23.8766 221.725C25.1927 219.421 29.2996 220.898 31.2982 220.868C33.2969 220.838 32.7911 218.381 32.7911 218.381C32.7911 218.381 30.11 212.909 26.6978 202.117C23.2855 191.325 28.3917 190.395 28.3917 190.395" fill="#EBEBEB"/>
<path d="M57.0608 277.364C54.5382 269.46 49.8219 255.506 45.8308 243.498C41.8397 231.49 38.2385 220.625 35.6732 212.745C34.3997 208.805 33.3699 205.62 32.6265 203.406C32.267 202.312 32.0172 201.455 31.7978 200.865C31.7044 200.585 31.6313 200.366 31.5785 200.208C31.5297 200.056 31.4993 199.983 31.4993 199.983C31.4993 199.983 31.4993 200.062 31.5602 200.214C31.6211 200.366 31.6699 200.591 31.7552 200.877C31.938 201.485 32.2 202.33 32.5412 203.431C33.2237 205.65 34.2291 208.848 35.4965 212.794C38.0191 220.698 41.5898 231.569 45.5809 243.571C49.5721 255.573 54.3188 269.533 56.8841 277.412" fill="#E0E0E0"/>
<path d="M46.9399 218.321C46.8386 218.471 46.751 218.629 46.6779 218.795C46.5195 219.105 46.3062 219.567 46.0686 220.132C45.5507 221.269 44.8499 222.856 44.1736 224.619C43.4972 226.383 42.8574 227.933 42.3456 229.137C42.1323 229.678 41.9434 230.14 41.7971 230.505C41.7139 230.666 41.6524 230.838 41.6143 231.016C41.7157 230.866 41.8033 230.707 41.8764 230.541C42.0348 230.231 42.2481 229.775 42.4857 229.204C42.9914 228.061 43.6434 226.468 44.3503 224.705C45.0571 222.941 45.6908 221.397 46.1783 220.199L46.7389 218.831C46.8274 218.67 46.8949 218.499 46.9399 218.321Z" fill="#E0E0E0"/>
<path d="M40.9014 231.04C40.9319 230.979 37.7146 229.459 33.7174 227.635C29.7201 225.811 26.4663 224.388 26.4054 224.449C26.3444 224.51 29.5983 226.03 33.5955 227.848C37.5927 229.666 40.9014 231.107 40.9014 231.04Z" fill="#E0E0E0"/>
<path d="M47.8843 249.207C47.7063 249.15 47.5223 249.113 47.3359 249.098L45.843 248.879C44.5878 248.696 42.8451 248.435 40.9379 248.07C39.0307 247.705 37.3185 247.334 36.0632 247.043L34.5948 246.708C34.4168 246.653 34.2325 246.62 34.0464 246.611C34.2151 246.687 34.3905 246.748 34.5704 246.793C34.9116 246.897 35.4052 247.043 36.0206 247.207C37.2392 247.535 38.9697 247.942 40.8952 248.301C42.8207 248.66 44.5512 248.909 45.8247 249.043C46.4341 249.116 46.9703 249.164 47.3298 249.189C47.5137 249.211 47.6993 249.217 47.8843 249.207Z" fill="#E0E0E0"/>
<path d="M55.8665 238.889C55.7347 238.999 55.6161 239.123 55.513 239.26L54.6173 240.33C53.8678 241.236 52.8503 242.501 51.7352 243.905C50.6201 245.31 49.6147 246.587 48.9018 247.523L48.067 248.636C47.9577 248.768 47.8617 248.91 47.7806 249.061C47.9142 248.954 48.0331 248.829 48.134 248.69L49.0297 247.626C49.7792 246.714 50.7968 245.456 51.918 244.051C53.0392 242.647 54.0323 241.364 54.7453 240.434L55.5801 239.321C55.6921 239.189 55.7882 239.044 55.8665 238.889Z" fill="#E0E0E0"/>
<path d="M64.0559 254.144C63.8912 254.288 63.7422 254.449 63.6111 254.624C63.3064 254.977 62.9226 255.439 62.4595 255.986C61.4906 257.141 60.1745 258.753 58.7243 260.54C57.274 262.328 55.9762 263.951 55.0683 265.137L53.9715 266.541C53.8317 266.71 53.7073 266.891 53.5998 267.082C53.7605 266.934 53.9092 266.773 54.0446 266.602L55.1962 265.24C56.159 264.079 57.4812 262.474 58.9314 260.686C60.3817 258.898 61.6795 257.275 62.5874 256.09C63.0262 255.524 63.3978 255.05 63.6781 254.679C63.8213 254.513 63.9478 254.334 64.0559 254.144Z" fill="#E0E0E0"/>
<path d="M53.6973 266.699C53.474 266.631 53.2458 266.581 53.0148 266.547L51.132 266.207C49.5416 265.915 47.348 265.501 44.9411 264.991C42.5343 264.48 40.365 263.945 38.7991 263.55L36.9406 263.088C36.7154 263.021 36.4851 262.972 36.252 262.942C36.4659 263.039 36.6883 263.116 36.9162 263.173C37.3489 263.307 37.9765 263.495 38.7442 263.708C40.3041 264.146 42.4673 264.699 44.8802 265.216C47.2932 265.732 49.4928 266.128 51.0893 266.377C51.8875 266.505 52.5395 266.596 52.9844 266.651C53.2199 266.689 53.4586 266.706 53.6973 266.699Z" fill="#E0E0E0"/>
<path d="M-4.00003 277.145C-4.00003 277.23 80.6317 277.303 185 277.303C289.368 277.303 374 277.248 374 277.145C374 277.041 289.387 276.987 184.975 276.987C80.564 276.987 -4.00003 277.06 -4.00003 277.145Z" fill="#263238"/>
<path d="M129.037 65.5572L134.835 70.5051L127.096 79.5342L121.298 74.5863L129.037 65.5572Z" fill="#263238"/>
<path d="M124.027 64.8553L135.957 75.0819L144.323 65.3539C141.033 60.7452 137.109 57.2675 132.411 55.1273L124.027 64.8553Z" fill="#455A64"/>
<path d="M133.946 73.3674C134.014 73.4282 136.03 71.2151 138.456 68.4365C140.881 65.658 142.794 63.3598 142.721 63.299C142.648 63.2382 140.637 65.4513 138.212 68.2298C135.787 71.0084 133.879 73.3127 133.946 73.3674Z" fill="#263238"/>
<path d="M131.692 71.4218C132.174 70.9538 132.622 70.4519 133.033 69.92C133.837 68.9776 134.928 67.6704 136.128 66.2112L139.175 62.466L140.089 61.329C140.308 61.0493 140.424 60.9216 140.424 60.9034C140.302 60.794 138.273 63.0983 135.872 66.0106C134.653 67.4698 133.605 68.8013 132.825 69.7802C132.4 70.293 132.021 70.8424 131.692 71.4218Z" fill="#263238"/>
<path d="M128.645 68.8257C129.135 68.3591 129.589 67.8572 130.004 67.3239C130.814 66.3693 131.911 65.0378 133.118 63.5604L136.164 59.7543L137.078 58.593C137.197 58.4546 137.303 58.3061 137.395 58.1492C136.872 58.5807 136.401 59.0726 135.994 59.6145C135.171 60.5569 134.062 61.8823 132.862 63.3597C131.661 64.8372 130.583 66.193 129.815 67.1841C129.38 67.6975 128.988 68.2466 128.645 68.8257Z" fill="#263238"/>
<path d="M125.897 66.3936C125.964 66.4483 127.969 64.2169 130.376 61.408C132.783 58.599 134.671 56.2704 134.604 56.2096C134.537 56.1488 132.539 58.3862 130.132 61.2013C127.725 64.0163 125.83 66.3389 125.897 66.3936Z" fill="#263238"/>
<path d="M26.9379 71.7033L32.2085 66.2L40.8164 74.4079L35.5458 79.9112L26.9379 71.7033Z" fill="#263238"/>
<path d="M26.6856 77.1187L37.5439 65.7795L28.2638 56.9331C23.4867 59.9731 19.7941 63.7001 17.4116 68.2723L26.6856 77.1187Z" fill="#455A64"/>
<path d="M35.7282 67.6826C35.7891 67.6157 33.6869 65.4877 31.0302 62.9281C28.3735 60.3684 26.1555 58.3437 26.1129 58.4045C26.0702 58.4653 28.1541 60.5933 30.8109 63.1591C33.4676 65.7248 35.6673 67.7434 35.7282 67.6826Z" fill="#263238"/>
<path d="M33.6562 69.8411C33.2232 69.3305 32.7505 68.8548 32.2426 68.4183C31.3469 67.5671 30.0916 66.4059 28.6962 65.1291L25.1073 61.8884L24.0166 60.9156C23.7545 60.6846 23.6266 60.5691 23.6083 60.563C23.4925 60.6785 25.6922 62.8247 28.483 65.3662C29.8784 66.6369 31.158 67.7982 32.0964 68.5825C32.5824 69.0423 33.1039 69.4631 33.6562 69.8411Z" fill="#263238"/>
<path d="M30.9021 72.7169C30.4636 72.2015 29.9848 71.7217 29.4701 71.282C28.5622 70.4247 27.2887 69.2573 25.869 67.9805L22.213 64.7338L21.0979 63.761C20.9618 63.6401 20.8194 63.5265 20.6714 63.4205C21.0743 63.9661 21.5406 64.4621 22.0607 64.898C22.9625 65.7674 24.236 66.9409 25.6496 68.2177C27.0633 69.4945 28.3672 70.6497 29.3056 71.4522C29.8044 71.9141 30.3382 72.3369 30.9021 72.7169Z" fill="#263238"/>
<path d="M28.3247 75.3373C28.3856 75.2705 26.2529 73.1607 23.5658 70.6132C20.8786 68.0657 18.6484 66.0593 18.5875 66.1261C18.5266 66.193 20.6592 68.3028 23.3464 70.8442C26.0336 73.3856 28.2637 75.3921 28.3247 75.3373Z" fill="#263238"/>
<path d="M75.5847 45.4298H84.615V59.4928H75.5847V45.4298Z" fill="#263238"/>
<path d="M70.7586 49.6372H89.3433V34.4797C82.8295 32.8746 76.6143 32.7773 70.7403 34.4797L70.7586 49.6372Z" fill="#008EFF"/>
<path d="M70.5209 34.5406C70.7386 34.6765 70.9693 34.7905 71.2095 34.8811C71.8458 35.1607 72.4991 35.4003 73.1655 35.5985C74.1638 35.9053 75.1816 36.145 76.2121 36.3159C77.4639 36.5142 78.7287 36.6198 79.9961 36.6321C81.2626 36.634 82.5276 36.5405 83.78 36.3524C84.8101 36.193 85.828 35.9635 86.8267 35.6654C87.4938 35.4706 88.149 35.2371 88.7888 34.9662C89.0308 34.8825 89.2619 34.7702 89.4773 34.6318C89.4773 34.5771 88.4536 34.9966 86.7658 35.4465C85.7752 35.7077 84.7701 35.9107 83.7557 36.0545C82.5156 36.2219 81.2657 36.3072 80.0144 36.3099C78.7621 36.2956 77.5123 36.1982 76.273 36.018C75.263 35.8722 74.2621 35.6693 73.2751 35.41C71.5446 34.9175 70.5453 34.4859 70.5209 34.5406Z" fill="#263238"/>
<path d="M83.2012 49.5946C83.2865 49.5946 83.3596 46.6823 83.3596 43.0951C83.3596 39.5079 83.2865 36.5956 83.2012 36.5956C83.1159 36.5956 83.0428 39.5018 83.0428 43.0951C83.0428 46.6884 83.1098 49.5946 83.2012 49.5946Z" fill="#263238"/>
<path d="M79.6609 49.6797C79.7462 49.6797 79.8193 46.7553 79.8193 43.1498C79.8193 39.5444 79.7462 36.626 79.6609 36.626C79.5756 36.626 79.5024 39.5444 79.5024 43.1498C79.5024 46.7553 79.5695 49.6797 79.6609 49.6797Z" fill="#263238"/>
<path d="M76.1209 49.625C76.2062 49.625 76.2793 46.7005 76.2793 43.0951C76.2793 39.4897 76.2062 36.5652 76.1209 36.5652C76.0356 36.5652 75.9624 39.4897 75.9624 43.0951C75.9624 46.7005 76.0295 49.625 76.1209 49.625Z" fill="#263238"/>
<path d="M73.196 49.625C73.2875 49.625 73.3545 46.4634 73.3545 42.5661C73.3545 38.6688 73.2875 35.5072 73.196 35.5072C73.1046 35.5072 73.0376 38.6688 73.0376 42.5661C73.0376 46.4634 73.0864 49.625 73.196 49.625Z" fill="#263238"/>
<path d="M86.5464 49.5338C86.6317 49.5338 86.7048 46.3722 86.7048 42.4749C86.7048 38.5776 86.6317 35.416 86.5464 35.416C86.4611 35.416 86.388 38.5776 86.388 42.4749C86.388 46.3722 86.455 49.5338 86.5464 49.5338Z" fill="#263238"/>
<path d="M34.7307 167.061C9.07156 141.458 9.07154 99.9475 34.7307 74.3445C60.3899 48.7415 101.992 48.7415 127.651 74.3445C153.31 99.9475 153.31 141.458 127.651 167.061C101.992 192.664 60.3899 192.664 34.7307 167.061Z" fill="#008EFF"/>
<path d="M81.1903 175.244C50.7146 175.244 26.0091 150.592 26.0091 120.183C26.0091 89.7743 50.7146 65.1229 81.1903 65.1229C111.666 65.1229 136.372 89.7743 136.372 120.183C136.372 150.592 111.666 175.244 81.1903 175.244Z" fill="#FAFAFA"/>
<path d="M26.0091 120.183C26.0091 120.183 26.0091 119.885 26.0518 119.296C26.0944 118.706 26.0518 117.824 26.1675 116.675C26.385 113.323 26.9113 109.997 27.7396 106.74C28.3367 104.39 29.092 102.083 30.0002 99.8336C31.0677 97.1523 32.3515 94.5618 33.839 92.0877C37.4781 86.0433 42.2338 80.743 47.8537 76.4682C54.6744 71.2902 62.6143 67.7756 71.0389 66.2051C78.1794 64.8942 85.5071 64.9788 92.6153 66.4544C95.1115 66.9951 97.5702 67.6957 99.9761 68.552C110.214 72.2732 119.119 78.9351 125.568 87.6979C127.251 89.9799 128.751 92.3911 130.053 94.9088C130.729 96.1674 131.308 97.4746 131.881 98.7879C132.454 100.101 132.965 101.463 133.398 102.849C134.333 105.623 135.034 108.471 135.494 111.361C135.957 114.284 136.199 117.237 136.219 120.196C136.198 123.156 135.957 126.111 135.5 129.036C135.034 131.925 134.333 134.772 133.404 137.548C132.965 138.928 132.417 140.266 131.887 141.603C131.357 142.941 130.717 144.23 130.059 145.488C128.757 148.007 127.255 150.419 125.568 152.699C119.12 161.465 110.215 168.129 99.9761 171.851C97.5702 172.708 95.1115 173.408 92.6153 173.949C90.1816 174.456 87.7163 174.8 85.2363 174.976C80.4901 175.334 75.7173 175.073 71.0389 174.198C62.6143 172.628 54.6744 169.113 47.8537 163.935C42.2322 159.662 37.4762 154.361 33.839 148.316C32.3527 145.841 31.0689 143.25 30.0002 140.57C27.836 135.194 26.5423 129.509 26.1675 123.728C26.064 122.579 26.0822 121.697 26.0518 121.108C26.0213 120.518 26.0091 120.214 26.0091 120.214C26.0091 120.214 26.0091 120.518 26.0091 121.108C26.0091 121.697 26.0091 122.579 26.0944 123.728C26.428 129.525 27.6975 135.231 29.854 140.624C30.9152 143.318 32.195 145.921 33.6806 148.407C37.3111 154.482 42.0673 159.811 47.6953 164.111C54.5401 169.321 62.5113 172.86 70.9718 174.447C75.6713 175.333 80.4668 175.603 85.2363 175.25C87.7285 175.074 90.2059 174.73 92.6519 174.222C95.1631 173.683 97.6363 172.981 100.055 172.119C110.354 168.383 119.312 161.687 125.8 152.876C127.493 150.583 129.001 148.159 130.309 145.628C130.991 144.364 131.576 143.038 132.173 141.719C132.77 140.399 133.258 139.031 133.697 137.639C134.631 134.852 135.336 131.993 135.805 129.091C136.772 123.204 136.772 117.199 135.805 111.313C135.334 108.423 134.629 105.576 133.697 102.801C133.252 101.408 132.703 100.065 132.167 98.721C131.631 97.3773 130.991 96.0823 130.309 94.8176C128.996 92.2875 127.487 89.8643 125.794 87.5703C119.309 78.7597 110.352 72.0652 100.055 68.3331C97.6381 67.472 95.167 66.7693 92.658 66.2295C90.2099 65.722 87.7304 65.3787 85.2363 65.2019C80.4688 64.8486 75.6754 65.1184 70.9779 66.0045C62.5152 67.5845 54.5425 71.1248 47.7014 76.3405C42.0736 80.6432 37.3175 85.9749 33.6867 92.0512C30.9573 96.638 28.9051 101.594 27.5934 106.765C26.7804 110.033 26.2725 113.369 26.0761 116.73C25.9847 117.879 26.0152 118.761 25.9909 119.35C25.9665 119.94 26.0091 120.183 26.0091 120.183Z" fill="#263238"/>
<path d="M34.1073 118.189C35.8561 118.262 37.282 118.189 37.2881 118.037C37.2942 117.885 35.8866 117.678 34.1378 117.581C32.389 117.484 30.9632 117.545 30.951 117.727C30.9388 117.91 32.3707 118.116 34.1073 118.189Z" fill="#263238"/>
<path d="M35.2834 130.866C36.9895 130.465 38.3301 130.021 38.3301 129.869C38.3301 129.717 36.8799 129.899 35.1676 130.27C33.4554 130.641 32.1209 131.091 32.1209 131.267C32.1209 131.444 33.5894 131.261 35.2834 130.866Z" fill="#263238"/>
<path d="M39.835 142.752C41.3766 141.913 42.5587 141.117 42.4856 140.983C42.4124 140.849 41.0963 141.403 39.5486 142.199C38.0009 142.996 36.8127 143.816 36.898 143.974C36.9833 144.133 38.2995 143.597 39.835 142.752Z" fill="#263238"/>
<path d="M47.4213 152.991C48.6765 151.775 49.6087 150.693 49.499 150.559C49.3894 150.425 48.2804 151.331 47.0008 152.535C45.7212 153.739 44.8011 154.815 44.923 154.967C45.0449 155.119 46.1721 154.213 47.4213 152.991Z" fill="#263238"/>
<path d="M57.4752 160.834C58.3527 159.32 58.962 158.031 58.8279 157.952C58.6939 157.873 57.853 159.029 56.9512 160.524C56.0494 162.02 55.44 163.309 55.5924 163.406C55.7447 163.503 56.5917 162.336 57.4752 160.834Z" fill="#263238"/>
<path d="M69.2658 165.692C69.7045 163.996 69.9421 162.591 69.7898 162.555C69.6375 162.518 69.1439 163.85 68.6747 165.534C68.2055 167.218 67.974 168.623 68.1507 168.671C68.3274 168.72 68.8271 167.383 69.2658 165.692Z" fill="#263238"/>
<path d="M81.9339 167.2C81.9339 165.449 81.7572 164.032 81.6048 164.032C81.4525 164.032 81.3246 165.455 81.3246 167.2C81.3246 168.945 81.4769 170.368 81.6536 170.368C81.8303 170.368 81.9644 168.957 81.9339 167.2Z" fill="#263238"/>
<path d="M94.5226 165.297C94.0229 163.619 93.4989 162.3 93.3466 162.342C93.1943 162.385 93.4624 163.783 93.9559 165.467C94.4495 167.151 94.9552 168.507 95.1319 168.422C95.3086 168.337 95.0527 166.975 94.5226 165.297Z" fill="#263238"/>
<path d="M106.179 160.062C105.247 158.585 104.388 157.448 104.254 157.527C104.12 157.606 104.753 158.889 105.661 160.384C106.569 161.88 107.435 163.011 107.587 162.92C107.739 162.829 107.112 161.546 106.179 160.062Z" fill="#263238"/>
<path d="M115.983 151.915C114.685 150.735 113.546 149.872 113.448 149.988C113.351 150.103 114.289 151.161 115.569 152.359C116.849 153.556 117.976 154.42 118.104 154.292C118.232 154.165 117.275 153.094 115.983 151.915Z" fill="#263238"/>
<path d="M123.247 141.445C121.681 140.661 120.352 140.132 120.285 140.266C120.218 140.399 121.412 141.171 122.966 141.986C124.52 142.801 125.842 143.33 125.928 143.166C126.013 143.002 124.806 142.235 123.247 141.445Z" fill="#263238"/>
<path d="M127.427 129.419C125.702 129.078 124.283 128.926 124.252 129.078C124.222 129.23 125.587 129.65 127.299 130.015C129.011 130.38 130.437 130.532 130.473 130.355C130.51 130.179 129.133 129.759 127.427 129.419Z" fill="#263238"/>
<path d="M128.201 116.736C126.452 116.864 125.044 117.095 125.05 117.247C125.056 117.399 126.488 117.441 128.237 117.338C129.986 117.235 131.4 117.01 131.387 116.827C131.375 116.645 129.949 116.578 128.201 116.736Z" fill="#263238"/>
<path d="M125.55 104.254C123.899 104.862 122.607 105.47 122.656 105.597C122.704 105.725 124.094 105.397 125.751 104.825C127.408 104.254 128.7 103.658 128.645 103.488C128.59 103.317 127.195 103.658 125.55 104.254Z" fill="#263238"/>
<path d="M119.633 92.9755C118.207 93.9908 117.123 94.915 117.196 95.0427C117.269 95.1704 118.524 94.4651 119.968 93.4741C121.413 92.483 122.497 91.5588 122.406 91.4068C122.314 91.2548 121.065 91.9601 119.633 92.9755Z" fill="#263238"/>
<path d="M110.914 83.6851C109.811 85.0409 109.013 86.2205 109.128 86.3238C109.244 86.4272 110.262 85.4118 111.383 84.0682C112.504 82.7245 113.308 81.551 113.168 81.4355C113.028 81.32 112.017 82.3293 110.914 83.6851Z" fill="#263238"/>
<path d="M100.007 77.058C99.312 78.6631 98.855 80.0129 99.0012 80.098C99.1475 80.1831 99.8421 78.9185 100.561 77.3255C101.28 75.7326 101.737 74.3828 101.573 74.2855C101.408 74.1882 100.72 75.4589 100.007 77.058Z" fill="#263238"/>
<path d="M87.7347 73.6106C87.4971 75.3434 87.424 76.7661 87.5824 76.7904C87.7408 76.8147 88.076 75.4285 88.338 73.7018C88.6 71.975 88.6731 70.5462 88.4964 70.5219C88.3197 70.4976 87.9724 71.8778 87.7347 73.6106Z" fill="#263238"/>
<path d="M74.9752 73.568C75.2067 75.3008 75.5175 76.6931 75.6698 76.6748C75.8221 76.6566 75.7856 75.2278 75.5784 73.495C75.3712 71.7622 75.0605 70.3638 74.8838 70.3881C74.7071 70.4124 74.7437 71.8291 74.9752 73.568Z" fill="#263238"/>
<path d="M62.6728 76.9303C63.3613 78.5415 64.0377 79.7939 64.184 79.7331C64.3302 79.6723 63.8976 78.3165 63.2334 76.6932C62.5692 75.0698 61.8868 73.8234 61.7222 73.8964C61.5577 73.9693 61.9782 75.3252 62.6728 76.9303Z" fill="#263238"/>
<path d="M51.7293 83.4785C52.8261 84.8465 53.8133 85.874 53.9351 85.7767C54.057 85.6794 53.2831 84.4817 52.2046 83.1015C51.1261 81.7214 50.145 80.6695 49.9988 80.8094C49.8525 80.9492 50.6508 82.1166 51.7293 83.4785Z" fill="#263238"/>
<path d="M42.9366 92.7079C44.3625 93.7294 45.5872 94.459 45.6786 94.3313C45.77 94.2036 44.7037 93.2612 43.2961 92.2154C41.8885 91.1697 40.6638 90.4461 40.5541 90.5921C40.4444 90.738 41.5108 91.6865 42.9366 92.7079Z" fill="#263238"/>
<path d="M36.9467 103.968C38.592 104.576 39.9934 104.935 40.03 104.795C40.0665 104.655 38.8113 104.023 37.16 103.397C35.5087 102.77 34.1499 102.399 34.0829 102.57C34.0158 102.74 35.3015 103.36 36.9467 103.968Z" fill="#263238"/>
<path d="M34.1986 116.383C35.9474 116.523 37.3732 116.511 37.3854 116.383C37.3976 116.256 35.9962 115.976 34.2535 115.775C32.5108 115.575 31.0788 115.623 31.0666 115.806C31.0545 115.988 32.4681 116.244 34.1986 116.383Z" fill="#263238"/>
<path d="M102.621 60.6177L102.809 60.7028L103.37 60.9278C103.858 61.1345 104.589 61.3838 105.521 61.7911C108.148 62.8869 110.699 64.1563 113.156 65.5911C114.716 66.491 116.367 67.5671 118.104 68.777C119.84 69.987 121.614 71.3975 123.387 72.9844C131.172 79.8313 137.118 88.511 140.686 98.2346C141.521 100.46 142.148 102.637 142.69 104.673C143.233 106.71 143.598 108.656 143.873 110.431C144.318 113.236 144.576 116.068 144.646 118.907C144.695 119.916 144.646 120.694 144.646 121.223C144.646 121.478 144.646 121.673 144.646 121.831C144.641 121.9 144.641 121.969 144.646 122.038C144.654 121.971 144.654 121.904 144.646 121.837C144.646 121.685 144.646 121.485 144.646 121.229C144.646 120.7 144.713 119.922 144.683 118.913C144.661 116.063 144.435 113.218 144.007 110.401C143.751 108.613 143.355 106.674 142.861 104.613C142.31 102.422 141.647 100.26 140.875 98.1373C137.325 88.3486 131.343 79.6189 123.49 72.7655C121.705 71.1786 119.889 69.8106 118.171 68.5642C116.453 67.3178 114.759 66.2842 113.18 65.3966C110.706 63.9766 108.135 62.7332 105.484 61.6756C104.552 61.2865 103.803 61.0676 103.303 60.867L102.73 60.6724C102.695 60.6515 102.658 60.6332 102.621 60.6177Z" fill="white"/>
<path d="M84.2798 57.0669C84.9064 57.1968 85.5419 57.2801 86.1809 57.3162C87.363 57.4378 88.9838 57.6141 90.7752 57.8452C92.5667 58.0762 94.1814 58.3194 95.3513 58.5018C95.978 58.6304 96.6135 58.7117 97.2524 58.745C96.6464 58.5342 96.0223 58.3796 95.3879 58.2829C94.2241 58.0458 92.6093 57.7661 90.8179 57.5351C89.0265 57.304 87.3874 57.1581 86.1992 57.0912C85.5616 57.0232 84.9189 57.0151 84.2798 57.0669Z" fill="white"/>
<g opacity="0.4">
<path opacity="0.4" d="M125.294 153.283C125.294 153.283 96.6979 198.311 52.3385 175.25C6.02911 151.173 31.6211 95.985 31.6211 95.985C31.6211 95.985 9.83135 139.968 54.9708 168.641C66.213 175.785 78.4545 175.791 87.7895 174.855C111.645 172.471 125.294 153.283 125.294 153.283Z" fill="black"/>
</g>
<path d="M65.8108 90.9203C65.5363 98.9958 65.7805 107.08 66.542 115.125C66.8223 118.037 67.1513 120.98 68.2786 123.685C69.4059 126.391 71.3253 128.872 74.0307 130.015C76.7362 131.158 80.1972 130.683 82.0801 128.446L65.8108 90.9203Z" fill="#E0E0E0"/>
<path d="M82.3909 115.842L62.3377 82.147L74.439 120.19L80.6238 122.032L82.3909 115.842Z" fill="#008EFF"/>
<g opacity="0.4">
<path opacity="0.4" d="M62.3376 82.147L77.2114 116.578L74.4389 120.19L62.3376 82.147Z" fill="black"/>
</g>
<path d="M80.6238 128.47C77.06 128.47 74.171 125.588 74.171 122.032C74.171 118.476 77.06 115.593 80.6238 115.593C84.1876 115.593 87.0767 118.476 87.0767 122.032C87.0767 125.588 84.1876 128.47 80.6238 128.47Z" fill="#FAFAFA"/>
<path d="M74.1709 122.032C74.2288 121.508 74.3163 120.989 74.4329 120.475C74.8066 119.089 75.6345 117.866 76.7849 117.004C77.6301 116.369 78.621 115.956 79.6673 115.802C80.7136 115.648 81.7819 115.758 82.7747 116.122C83.3461 116.324 83.8826 116.613 84.365 116.979C84.8787 117.351 85.3293 117.803 85.6995 118.317C86.4915 119.394 86.9186 120.696 86.9186 122.032C86.9186 123.368 86.4915 124.669 85.6995 125.747C84.9596 126.748 83.9432 127.513 82.7747 127.948C81.9408 128.253 81.0523 128.381 80.166 128.323C79.2798 128.265 78.4153 128.024 77.6282 127.613C76.8411 127.203 76.1486 126.633 75.5952 125.94C75.0418 125.246 74.6397 124.446 74.4146 123.588C74.2969 123.075 74.2094 122.555 74.1526 122.032C74.1149 122.565 74.1622 123.1 74.2927 123.619C74.6257 125.068 75.4527 126.358 76.6326 127.267C77.4415 127.893 78.3872 128.32 79.3929 128.513C80.5498 128.734 81.7448 128.641 82.8539 128.246C83.4563 128.038 84.0219 127.736 84.5295 127.352C85.0684 126.963 85.5415 126.491 85.931 125.953C86.7699 124.826 87.2229 123.46 87.2229 122.056C87.2229 120.652 86.7699 119.286 85.931 118.159C85.5399 117.623 85.067 117.151 84.5295 116.76C84.0194 116.381 83.4544 116.082 82.8539 115.873C81.7454 115.474 80.5496 115.382 79.3929 115.605C78.1641 115.841 77.0295 116.425 76.1249 117.288C75.2203 118.15 74.5842 119.255 74.2927 120.469C74.171 120.981 74.1299 121.508 74.1709 122.032Z" fill="#263238"/>
<path d="M75.8963 122.997C75.3708 120.404 77.0519 117.876 79.6511 117.352C82.2503 116.827 84.7835 118.505 85.309 121.098C85.8345 123.692 84.1534 126.219 81.5542 126.744C78.9549 127.268 76.4218 125.591 75.8963 122.997Z" fill="#455A64"/>
<path d="M131.497 276.573H99.7508L114.551 149.294L131.497 276.573Z" fill="#E0E0E0"/>
<path d="M287.706 149.294L308.374 278.075L132.003 280.367L114.551 149.294H287.706Z" fill="#FAFAFA"/>
<path d="M122.406 208.289H297.175L293.373 184.577H119.249L122.406 208.289Z" fill="#EBEBEB"/>
<path d="M122.394 208.307H297.193L293.385 184.595H119.231L122.394 208.307ZM297.157 208.276H122.418L119.268 184.564H293.354L297.157 208.276Z" fill="#263238"/>
<path d="M287.706 149.294L293.373 184.577H119.249L114.551 149.294H287.706Z" fill="#008EFF"/>
<path d="M287.681 149.294L114.527 149.148H114.363V149.313C119.463 187.683 125.251 231.198 131.369 277.157V277.297H133.49L308.228 277.248H308.399V277.096L287.681 149.294C287.852 150.352 295.725 199.728 308.076 277.157L308.204 277.005H133.532H131.552L131.704 277.139C125.58 231.18 119.78 187.671 114.643 149.3L114.503 149.459L287.681 149.294Z" fill="#263238"/>
<path d="M119.249 184.577C119.249 184.662 158.247 184.735 206.305 184.735C254.363 184.735 293.373 184.662 293.373 184.577C293.373 184.492 254.375 184.419 206.305 184.419C158.235 184.419 119.249 184.485 119.249 184.577Z" fill="#263238"/>
<path d="M122.406 208.289C122.406 208.38 161.61 208.447 209.955 208.447C258.299 208.447 297.51 208.38 297.51 208.289C297.51 208.197 258.318 208.13 209.955 208.13C161.592 208.13 122.406 208.203 122.406 208.289Z" fill="#263238"/>
<path d="M125.964 230.11C125.964 230.201 165.163 230.268 213.507 230.268C261.852 230.268 301.087 230.201 301.087 230.11C301.087 230.019 261.894 229.952 213.532 229.952C165.169 229.952 125.964 230.025 125.964 230.11Z" fill="#263238"/>
<path d="M129.517 251.931C129.517 252.016 168.721 252.089 217.066 252.089C265.41 252.089 304.621 252.016 304.621 251.931C304.621 251.846 265.429 251.773 217.066 251.773C168.703 251.773 129.517 251.846 129.517 251.931Z" fill="#263238"/>
<path d="M283.617 277.333C283.702 277.333 280.503 256.54 276.463 230.931C272.424 205.322 269.09 184.558 269.005 184.577C268.92 184.595 272.119 205.358 276.153 230.979C280.186 256.6 283.526 277.345 283.617 277.333Z" fill="#263238"/>
<path d="M256.666 277.333C256.758 277.333 253.553 256.54 249.519 230.931C245.485 205.322 242.146 184.558 242.054 184.577C241.963 184.595 245.168 205.358 249.208 230.979C253.248 256.6 256.605 277.345 256.666 277.333Z" fill="#263238"/>
<path d="M231.623 276.403C231.708 276.403 228.539 255.822 224.548 230.469C220.557 205.115 217.236 184.558 217.157 184.577C217.078 184.595 220.24 205.151 224.231 230.517C228.222 255.883 231.543 276.415 231.623 276.403Z" fill="#263238"/>
<path d="M206.853 277.139C206.939 277.139 203.746 256.388 199.718 230.833C195.69 205.279 192.357 184.558 192.272 184.577C192.187 184.595 195.38 205.316 199.407 230.882C203.435 256.448 206.768 277.151 206.853 277.139Z" fill="#263238"/>
<path d="M181.962 277.139C182.047 277.139 178.854 256.388 174.827 230.833C170.799 205.279 167.466 184.558 167.381 184.577C167.295 184.595 170.482 205.316 174.51 230.882C178.537 256.448 181.871 277.151 181.962 277.139Z" fill="#263238"/>
<path d="M157.089 277.248C157.174 277.248 153.975 256.473 149.942 230.876C145.908 205.279 142.575 184.534 142.483 184.552C142.392 184.57 145.597 205.322 149.631 230.924C153.665 256.527 157.004 277.284 157.089 277.248Z" fill="#263238"/>
<g opacity="0.2">
<path opacity="0.2" d="M172.749 186.23C169.751 184.905 167.874 181.792 167.1 178.612C166.326 175.432 166.448 172.113 166.333 168.836C166.217 165.558 165.827 162.184 164.151 159.369C163.158 157.709 161.763 156.329 160.66 154.73C159.557 153.131 158.74 151.185 159.149 149.258L177.904 149.355L172.749 186.23Z" fill="black"/>
</g>
<path d="M250.512 210.046C250.562 210.127 250.624 210.201 250.695 210.265L251.255 210.873C251.749 211.377 252.474 212.089 253.388 212.976C255.216 214.727 257.757 217.111 260.651 219.664C263.546 222.218 266.227 224.443 268.195 226.024C269.182 226.814 269.986 227.447 270.547 227.848L271.199 228.334C271.271 228.398 271.354 228.449 271.443 228.486C271.443 228.486 271.376 228.407 271.242 228.286L270.632 227.751L268.347 225.823C266.41 224.2 263.753 221.944 260.865 219.403C257.976 216.861 255.381 214.502 253.553 212.794L251.353 210.769L250.744 210.228C250.674 210.158 250.597 210.097 250.512 210.046Z" fill="#263238"/>
<path d="M251.919 228.73C252.178 228.504 252.421 228.26 252.645 228L254.552 225.969C256.197 224.224 258.403 221.877 260.834 219.281L267.183 212.654L269.109 210.642C269.352 210.402 269.578 210.146 269.785 209.875C269.509 210.079 269.252 210.307 269.017 210.556C268.542 211.006 267.86 211.669 267.025 212.496C265.355 214.15 263.076 216.466 260.609 219.068C258.141 221.671 255.947 224.066 254.387 225.823C253.607 226.699 252.98 227.416 252.559 227.915C252.321 228.166 252.107 228.439 251.919 228.73Z" fill="#263238"/>
<path d="M245.412 215.633C245.412 215.633 245.351 215.475 245.223 215.165C245.021 214.715 244.776 214.286 244.492 213.882C243.371 212.32 241.791 211.145 239.97 210.52C238.666 210.05 237.276 209.867 235.894 209.985C234.249 210.144 232.663 210.684 231.263 211.56C229.646 212.554 228.281 213.906 227.272 215.512C226.105 217.304 225.524 219.413 225.608 221.549C225.678 222.701 226.037 223.817 226.65 224.796C227.294 225.811 228.15 226.674 229.161 227.325C231.313 228.702 233.847 229.364 236.4 229.216C237.737 229.144 239.053 228.859 240.299 228.371C241.596 227.866 242.762 227.076 243.712 226.06C244.183 225.526 244.581 224.931 244.894 224.291C245.192 223.638 245.397 222.946 245.503 222.236C245.706 220.782 245.579 219.3 245.131 217.901C244.2 214.983 242.18 212.534 239.489 211.061C238.094 210.297 236.542 209.861 234.953 209.789C233.363 209.716 231.778 210.008 230.319 210.642C228.807 211.277 227.483 212.288 226.474 213.578C225.463 214.903 224.831 216.477 224.646 218.132C224.435 219.811 224.707 221.515 225.432 223.045C225.804 223.813 226.293 224.518 226.882 225.136C227.481 225.746 228.157 226.275 228.893 226.711C230.377 227.526 232.013 228.028 233.7 228.185C235.386 228.342 237.088 228.151 238.697 227.623C240.282 227.137 241.738 226.307 242.962 225.191C244.176 224.074 245.005 222.604 245.333 220.99C245.676 219.403 245.449 217.746 244.693 216.308C244.309 215.6 243.782 214.979 243.145 214.484C242.518 214.012 241.818 213.644 241.073 213.396C239.61 212.928 238.075 212.722 236.54 212.788C235.045 212.799 233.558 213.003 232.116 213.396C230.691 213.77 229.373 214.474 228.271 215.451C227.215 216.434 226.495 217.722 226.212 219.135C225.932 220.501 226.014 221.915 226.449 223.239C226.881 224.516 227.609 225.673 228.576 226.614C230.411 228.405 232.842 229.46 235.407 229.581C236.607 229.644 237.808 229.47 238.941 229.07C240.028 228.681 241.006 228.036 241.792 227.191C242.536 226.385 243.099 225.429 243.444 224.388C243.783 223.412 243.934 222.381 243.888 221.348C243.802 219.437 243.037 217.618 241.731 216.217C240.615 214.998 239.203 214.087 237.631 213.572C236.311 213.143 234.913 213.01 233.536 213.183C231.633 213.419 229.825 214.146 228.29 215.293C227.891 215.585 227.514 215.906 227.162 216.253C226.925 216.491 226.809 216.618 226.809 216.618C226.809 216.618 226.943 216.503 227.181 216.278C227.543 215.942 227.925 215.63 228.326 215.341C229.864 214.229 231.662 213.528 233.548 213.305C235.036 213.133 236.543 213.319 237.943 213.848C239.344 214.377 240.597 215.233 241.597 216.345C242.869 217.716 243.61 219.494 243.687 221.361C243.729 222.373 243.578 223.384 243.243 224.34C242.903 225.349 242.353 226.276 241.628 227.058C240.864 227.876 239.916 228.502 238.861 228.882C237.756 229.265 236.587 229.43 235.419 229.368C232.916 229.245 230.546 228.208 228.759 226.456C227.825 225.545 227.121 224.426 226.705 223.191C226.288 221.911 226.213 220.544 226.486 219.227C226.76 217.87 227.453 216.633 228.466 215.688C229.538 214.748 230.815 214.069 232.195 213.706C233.614 213.318 235.076 213.114 236.546 213.098C238.045 213.041 239.542 213.247 240.97 213.706C242.426 214.151 243.659 215.131 244.419 216.448C245.14 217.823 245.356 219.406 245.028 220.923C244.712 222.474 243.912 223.885 242.743 224.954C241.557 226.047 240.142 226.861 238.599 227.337C237.033 227.851 235.377 228.038 233.736 227.885C232.094 227.733 230.501 227.244 229.057 226.45C228.344 226.032 227.69 225.521 227.114 224.93C226.548 224.336 226.077 223.66 225.718 222.923C225.017 221.447 224.753 219.802 224.956 218.181C225.131 216.583 225.735 215.062 226.705 213.779C227.681 212.532 228.961 211.554 230.422 210.94C231.838 210.322 233.377 210.038 234.92 210.107C236.464 210.177 237.97 210.599 239.325 211.341C241.939 212.777 243.902 215.16 244.809 217.998C245.243 219.356 245.37 220.793 245.18 222.206C245.071 222.892 244.866 223.559 244.571 224.188C244.269 224.802 243.888 225.375 243.438 225.89C242.519 226.873 241.39 227.638 240.135 228.128C238.916 228.608 237.629 228.892 236.321 228.967C233.823 229.119 231.341 228.481 229.228 227.143C228.251 226.546 227.429 225.729 226.827 224.758C226.225 223.786 225.859 222.687 225.761 221.549C225.676 219.46 226.24 217.396 227.376 215.639C228.362 214.054 229.7 212.716 231.287 211.73C232.663 210.861 234.22 210.322 235.839 210.155C237.2 210.026 238.573 210.196 239.861 210.654C241.665 211.262 243.239 212.408 244.37 213.937C244.662 214.333 244.915 214.757 245.125 215.202C245.333 215.481 245.412 215.633 245.412 215.633Z" fill="#008EFF"/>
<path d="M228.905 232.42C228.85 232.487 233.682 236.609 239.703 241.631C245.723 246.653 250.671 250.66 250.707 250.593C250.744 250.526 245.93 246.404 239.91 241.388C233.889 236.372 228.96 232.353 228.905 232.42Z" fill="#263238"/>
<path d="M227.851 250.052C228.138 249.884 228.409 249.691 228.661 249.475L230.806 247.809C232.604 246.386 235.072 244.404 237.789 242.203C240.507 240.002 242.95 237.995 244.711 236.53L246.789 234.779C247.052 234.579 247.297 234.355 247.52 234.11C247.235 234.28 246.964 234.474 246.71 234.688L244.571 236.354C242.774 237.777 240.306 239.759 237.588 241.96C234.871 244.161 232.427 246.167 230.66 247.632L228.588 249.377C228.327 249.584 228.08 249.81 227.851 250.052Z" fill="#263238"/>
<path d="M178.038 232.657C177.989 232.724 182.608 236.257 188.366 240.561C194.124 244.866 198.828 248.265 198.883 248.192C198.938 248.119 194.313 244.592 188.555 240.288C182.797 235.983 178.093 232.584 178.038 232.657Z" fill="#263238"/>
<path d="M176.247 247.614C176.289 247.687 181.2 244.653 187.215 240.829C193.229 237.004 198.048 233.855 198.006 233.776C197.963 233.697 193.052 236.743 187.038 240.561C181.024 244.379 176.173 247.541 176.247 247.614Z" fill="#263238"/>
<path d="M228.113 277.145C228.18 277.084 223.378 272.062 217.395 265.939C211.411 259.817 206.506 254.886 206.427 254.947C206.347 255.007 211.161 260.029 217.145 266.158C223.128 272.287 228.052 277.205 228.113 277.145Z" fill="#008EFF"/>
<path d="M207.816 277.139C207.816 277.139 207.895 277.072 208.017 276.926L208.529 276.318C209.004 275.71 209.638 274.925 210.412 273.965C212.002 271.983 214.257 269.289 216.871 266.426C219.485 263.562 221.965 261.075 223.793 259.312L225.962 257.184L226.571 256.612C226.642 256.548 226.705 256.477 226.76 256.4C226.76 256.4 226.669 256.448 226.529 256.564L225.919 257.093C225.377 257.555 224.609 258.242 223.671 259.105C221.806 260.832 219.296 263.3 216.67 266.17C214.043 269.04 211.795 271.764 210.272 273.782C209.492 274.792 208.876 275.606 208.444 276.214L207.975 276.883C207.911 276.961 207.858 277.047 207.816 277.139Z" fill="#008EFF"/>
<path d="M257.696 251.566C257.696 251.566 257.501 266.505 261.279 275.448L284.306 271.533C284.306 271.533 277.371 257.379 279.26 249.511L257.696 251.566Z" fill="#EBEBEB"/>
<path d="M257.702 251.007C257.702 251.007 260.591 269.344 262.358 274.816L285.244 270.28C285.244 270.28 280.534 252.551 280.595 247.614L257.702 251.007Z" fill="#008EFF"/>
<path d="M278.273 255.834C278.273 255.919 274.873 256.71 270.638 257.597C266.403 258.485 262.961 259.136 262.942 259.057C262.924 258.978 266.342 258.181 270.577 257.293C274.812 256.406 278.255 255.749 278.273 255.834Z" fill="white"/>
<path d="M278.858 259.719C278.858 259.804 275.458 260.589 271.223 261.483C266.988 262.376 263.546 263.021 263.527 262.942C263.509 262.863 266.927 262.066 271.162 261.179C275.397 260.291 278.84 259.616 278.858 259.719Z" fill="white"/>
<path d="M275.495 264.115C275.104 264.284 274.695 264.407 274.276 264.48C273.49 264.668 272.399 264.918 271.199 265.173C269.998 265.428 268.896 265.635 268.097 265.781C267.671 265.888 267.233 265.941 266.793 265.939C267.199 265.769 267.622 265.644 268.055 265.568C268.835 265.374 269.925 265.124 271.132 264.875C272.338 264.626 273.435 264.407 274.227 264.267C274.642 264.166 275.068 264.115 275.495 264.115Z" fill="white"/>
<path d="M148.753 209.62C148.753 209.62 146.395 224.176 148.784 233.46L171.841 232.967C171.841 232.967 167.125 218.144 170.117 210.733L148.753 209.62Z" fill="#EBEBEB"/>
<path d="M148.857 209.073C148.857 209.073 149.009 227.38 149.942 232.967L172.956 231.879C172.956 231.879 170.939 213.882 171.737 209.073H148.857Z" fill="#455A64"/>
<path d="M168.471 217.22C168.471 217.305 165.01 217.378 160.739 217.384C156.468 217.39 153 217.33 153 217.244C153 217.159 156.461 217.086 160.739 217.08C165.017 217.074 168.471 217.135 168.471 217.22Z" fill="white"/>
<path d="M168.252 221.093C168.252 221.178 164.791 221.251 160.519 221.257C156.248 221.263 152.781 221.203 152.781 221.117C152.781 221.032 156.242 220.959 160.519 220.953C164.797 220.947 168.252 221.008 168.252 221.093Z" fill="white"/>
<path d="M164.127 224.662C163.703 224.753 163.269 224.792 162.835 224.778C162.037 224.778 160.934 224.82 159.715 224.826C158.497 224.832 157.4 224.826 156.602 224.784C156.168 224.801 155.735 224.766 155.31 224.68C155.734 224.59 156.168 224.553 156.602 224.571C157.4 224.54 158.497 224.522 159.715 224.516C160.934 224.51 162.037 224.516 162.835 224.559C163.268 224.541 163.702 224.576 164.127 224.662Z" fill="white"/>
<path d="M143.879 167.65C148.181 167.65 152.513 164.956 154.792 160.719C157.007 156.499 157.694 151.645 156.736 146.978C155.474 140.898 151.441 135.912 146.456 134.319C142.221 132.963 134.653 133.711 131.083 139.676C129.382 142.592 128.537 145.928 128.645 149.3C128.661 149.54 128.724 149.774 128.831 149.989C128.938 150.204 129.086 150.397 129.267 150.555C129.448 150.713 129.658 150.834 129.886 150.911C130.114 150.987 130.355 151.019 130.595 151.003C131.08 150.971 131.532 150.748 131.852 150.383C132.172 150.018 132.334 149.541 132.301 149.057C132.268 146.424 132.946 143.83 134.263 141.548C137.018 136.958 143.056 137.049 145.384 137.791C149.649 139.153 152.379 143.755 153.202 147.714C153.991 151.546 153.43 155.532 151.611 158.998C149.814 162.342 146.176 164.421 142.953 163.929C142.477 163.863 141.994 163.986 141.609 164.273C141.223 164.559 140.966 164.985 140.894 165.459C140.821 165.933 140.938 166.416 141.219 166.804C141.501 167.193 141.924 167.455 142.398 167.534C142.888 167.61 143.383 167.649 143.879 167.65Z" fill="#263238"/>
<path d="M261.894 167.65C266.202 167.65 270.529 164.956 272.808 160.719C275.025 156.499 275.714 151.645 274.757 146.978C273.691 141.846 270.084 135.937 264.399 134.307C261.658 133.566 258.752 133.713 256.1 134.727L257.416 138.131C259.324 137.408 261.412 137.295 263.387 137.809C267.579 139.025 270.309 143.658 271.15 147.714C271.94 151.545 271.378 155.532 269.56 158.998C267.762 162.348 264.118 164.421 260.901 163.929L260.347 167.534C260.859 167.613 261.376 167.652 261.894 167.65Z" fill="#263238"/>
<path d="M145.384 149.392L147.065 158.578H122.32L120.121 149.483L145.384 149.392Z" fill="#008EFF"/>
<path d="M255.624 166.197C255.623 166.974 255.853 167.734 256.285 168.381C256.717 169.028 257.332 169.532 258.051 169.83C258.771 170.128 259.563 170.207 260.327 170.055C261.091 169.904 261.793 169.53 262.344 168.98C262.895 168.43 263.27 167.73 263.421 166.968C263.573 166.205 263.495 165.415 263.196 164.697C262.897 163.979 262.392 163.366 261.744 162.935C261.095 162.503 260.333 162.274 259.554 162.275C258.513 162.277 257.514 162.69 256.777 163.426C256.04 164.161 255.626 165.157 255.624 166.197Z" fill="#263238"/>
<path d="M137.712 166.197C137.711 166.974 137.941 167.734 138.373 168.381C138.805 169.028 139.42 169.532 140.139 169.83C140.859 170.128 141.651 170.207 142.415 170.055C143.179 169.904 143.881 169.53 144.432 168.98C144.983 168.43 145.358 167.73 145.509 166.968C145.661 166.205 145.583 165.415 145.284 164.697C144.985 163.979 144.48 163.366 143.831 162.935C143.183 162.503 142.421 162.274 141.642 162.275C140.6 162.277 139.602 162.69 138.865 163.426C138.128 164.161 137.714 165.157 137.712 166.197Z" fill="#263238"/>
<path d="M299.776 243.972H339.566V249.426H299.776V243.972Z" fill="#263238"/>
<path d="M299.71 249.499H339.633V243.905H299.71V249.499ZM339.499 249.359H299.844V244.039H339.499V249.359Z" fill="#263238"/>
<path d="M335.874 247.614L330.152 275.807H308.959L303.42 249.432L335.874 247.614Z" fill="#263238"/>
<path d="M335.874 273.138L332.821 277.333H307.064L303.42 273.138H335.874Z" fill="#455A64"/>
<path d="M321.164 248.435C321.243 248.435 321.341 235.375 321.39 219.251C321.438 203.127 321.39 190.067 321.329 190.067C321.268 190.067 321.152 203.127 321.103 219.251C321.054 235.375 321.085 248.435 321.164 248.435Z" fill="#263238"/>
<path d="M312.298 215.749C312.325 215.853 312.362 215.955 312.408 216.053C312.499 216.278 312.621 216.557 312.761 216.898C312.841 217.086 312.926 217.287 313.023 217.506C313.121 217.725 313.194 217.986 313.286 218.248L313.596 219.099C313.7 219.403 313.785 219.707 313.889 220.072C314.362 221.668 314.734 223.293 315.004 224.936C315.31 226.951 315.513 228.98 315.613 231.016C315.757 234.719 315.651 238.428 315.296 242.118C315.168 243.54 315.04 244.683 314.943 245.474C314.906 245.845 314.87 246.149 314.845 246.386C314.837 246.493 314.837 246.601 314.845 246.708C314.884 246.606 314.908 246.5 314.919 246.392C314.961 246.155 315.01 245.857 315.071 245.492C315.199 244.702 315.363 243.559 315.516 242.142C315.93 238.445 316.062 234.721 315.912 231.003C315.821 228.957 315.618 226.917 315.302 224.893C315.021 223.247 314.626 221.621 314.12 220.029C314.011 219.689 313.919 219.36 313.81 219.062L313.48 218.211L313.188 217.475C313.091 217.251 312.993 217.056 312.908 216.867L312.499 216.041C312.448 215.933 312.381 215.835 312.298 215.749Z" fill="#263238"/>
<path d="M313.316 205.188C313.35 205.334 313.392 205.478 313.444 205.62C313.547 205.917 313.688 206.325 313.858 206.836L314.163 207.711C314.26 208.039 314.37 208.392 314.486 208.769C314.717 209.523 314.985 210.38 315.223 211.347L315.625 212.861C315.747 213.39 315.869 213.943 315.997 214.508C316.277 215.645 316.478 216.88 316.734 218.156C317.173 220.747 317.557 223.629 317.825 226.638C318.093 229.648 318.184 232.56 318.221 235.193C318.258 237.825 318.221 240.196 318.087 242.185C318.056 243.182 317.989 244.076 317.941 244.866C317.892 245.656 317.843 246.337 317.794 246.891C317.746 247.444 317.721 247.851 317.697 248.173C317.689 248.321 317.689 248.469 317.697 248.617C317.736 248.474 317.761 248.328 317.77 248.18C317.807 247.857 317.855 247.438 317.922 246.903C317.989 246.368 318.056 245.687 318.117 244.878C318.178 244.069 318.258 243.194 318.306 242.197C318.44 240.203 318.495 237.831 318.501 235.193C318.507 232.554 318.379 229.654 318.123 226.62C317.868 223.586 317.459 220.71 317.008 218.108C316.746 216.813 316.533 215.579 316.247 214.46C316.113 213.888 315.979 213.335 315.857 212.806L315.436 211.298C315.186 210.332 314.9 209.474 314.65 208.72C314.528 208.343 314.413 207.997 314.309 207.668C314.205 207.34 314.084 207.061 313.98 206.799L313.517 205.583C313.465 205.444 313.398 205.312 313.316 205.188Z" fill="#263238"/>
<path d="M323.681 250.745C323.687 250.695 323.687 250.644 323.681 250.593C323.681 250.478 323.681 250.332 323.717 250.143C323.748 249.73 323.784 249.152 323.833 248.417C323.931 246.891 324.065 244.726 324.235 242.051C324.576 236.682 325.076 229.283 325.984 221.105C326.447 217.02 326.983 213.147 327.544 209.632C327.836 207.881 328.105 206.215 328.415 204.659C328.726 203.102 329.025 201.661 329.268 200.342C329.512 199.023 329.823 197.843 330.06 196.804C330.298 195.764 330.511 194.864 330.67 194.134C330.828 193.405 330.981 192.858 331.084 192.45C331.121 192.274 331.157 192.128 331.182 192.012C331.191 191.962 331.191 191.911 331.182 191.86C331.157 191.906 331.138 191.955 331.127 192.006L331.005 192.438C330.889 192.839 330.737 193.399 330.536 194.11C330.335 194.821 330.097 195.721 329.847 196.767C329.597 197.813 329.293 198.986 329.019 200.306C328.744 201.625 328.409 203.06 328.129 204.616C327.849 206.173 327.52 207.839 327.227 209.596C326.654 213.11 326.112 216.989 325.649 221.069C324.741 229.24 324.272 236.664 323.979 242.039C323.833 244.732 323.73 246.903 323.669 248.411C323.669 249.146 323.62 249.724 323.608 250.143C323.608 250.326 323.608 250.478 323.608 250.593C323.624 250.647 323.649 250.699 323.681 250.745Z" fill="#263238"/>
<path d="M321.487 196.384C321.664 194.56 323.534 193.137 325.399 193.119C326.331 193.16 327.242 193.412 328.063 193.857C328.883 194.301 329.591 194.927 330.133 195.685C331.206 197.211 331.981 198.925 332.418 200.737C333.674 205.097 334.356 209.675 333.82 214.18C333.284 218.685 331.456 223.118 328.214 226.298C327.69 226.82 326.995 227.337 326.282 227.179C325.897 227.067 325.546 226.857 325.265 226.571C322.092 223.673 319.577 220.13 317.89 216.182C316.202 212.234 315.38 207.971 315.479 203.68C315.528 201.971 315.753 200.184 316.698 198.761C317.642 197.339 319.866 195.819 321.481 196.39" fill="#008EFF"/>
<path d="M335.398 181.549L338.018 186.291C338.079 186.401 338.159 186.528 338.287 186.534C338.414 186.54 338.53 186.419 338.603 186.303L345.538 175.712L343.941 174.806L335.398 181.549Z" fill="#008EFF"/>
<g opacity="0.2">
<path opacity="0.2" d="M335.398 181.549L338.018 186.291C338.079 186.401 338.159 186.528 338.287 186.534C338.414 186.54 338.53 186.419 338.603 186.303L345.538 175.712L343.941 174.806L335.398 181.549Z" fill="black"/>
</g>
<path d="M321.329 190.091L344.983 176.162C345.118 176.11 345.241 176.033 345.345 175.934C345.45 175.835 345.534 175.716 345.592 175.584C345.684 175.238 345.422 174.897 345.172 174.636C343.544 172.953 341.573 171.639 339.391 170.784C337.209 169.929 334.869 169.553 332.528 169.681C330.189 169.849 327.925 170.582 325.934 171.819C323.942 173.055 322.282 174.756 321.097 176.776C318.818 180.843 318.739 186.23 321.359 190.091" fill="#008EFF"/>
<path d="M341.546 171.717C341.445 171.69 341.34 171.677 341.236 171.681C341.035 171.681 340.73 171.632 340.34 171.638C339.242 171.624 338.144 171.709 337.062 171.894C335.449 172.17 333.877 172.645 332.382 173.31C329.802 174.468 327.511 176.182 325.673 178.327C323.835 180.472 322.495 182.997 321.749 185.72C321.444 186.776 321.24 187.859 321.14 188.954C321.091 189.337 321.103 189.641 321.091 189.848C321.081 189.951 321.081 190.055 321.091 190.158C321.091 190.158 321.146 189.732 321.243 188.942C321.378 187.862 321.6 186.794 321.908 185.75C322.9 182.284 324.845 179.165 327.524 176.747C330.202 174.329 333.507 172.709 337.062 172.07C338.133 171.867 339.219 171.751 340.309 171.723C341.144 171.73 341.546 171.742 341.546 171.717Z" fill="#263238"/>
<path d="M324.534 180.479C324.915 180.711 325.325 180.892 325.752 181.02C326.508 181.318 327.58 181.695 328.738 182.072C329.896 182.449 330.993 182.741 331.785 182.935C332.205 183.063 332.638 183.145 333.077 183.178C332.687 182.99 332.278 182.844 331.858 182.741L328.848 181.798L325.844 180.831C325.42 180.671 324.981 180.553 324.534 180.479Z" fill="#263238"/>
<path d="M328.257 170.495C328.045 171.356 327.951 172.242 327.977 173.128C327.907 174.012 327.956 174.902 328.123 175.773C328.237 174.898 328.282 174.016 328.257 173.134C328.326 172.256 328.326 171.374 328.257 170.495Z" fill="#263238"/>
<path d="M345.202 175.9C344.649 175.647 344.074 175.443 343.484 175.292C342.412 174.958 340.913 174.538 339.219 174.137C337.525 173.736 336.026 173.432 334.953 173.237C334.352 173.103 333.741 173.022 333.125 172.994C333.704 173.18 334.294 173.326 334.892 173.432C335.989 173.675 337.5 174.04 339.158 174.417C340.815 174.794 342.32 175.201 343.423 175.481C344.006 175.66 344.601 175.8 345.202 175.9Z" fill="#263238"/>
<path d="M332.236 191.994C334.271 190.456 336.422 190.17 338.975 190.249C341.528 190.412 344.029 191.049 346.348 192.128C350.339 193.867 354.086 196.439 356.469 200.075C358.851 203.71 359.686 208.526 357.901 212.49C357.76 212.905 357.472 213.253 357.09 213.469C356.647 213.592 356.175 213.555 355.756 213.365C351.216 211.888 346.653 210.398 342.479 208.088C338.305 205.778 334.509 202.561 332.272 198.36C331.7 197.38 331.331 196.294 331.188 195.168C331.127 194.598 331.188 194.022 331.368 193.478C331.547 192.934 331.841 192.434 332.23 192.013" fill="#008EFF"/>
<path d="M332.199 191.52C332.301 191.578 332.409 191.623 332.522 191.654L333.473 191.982L334.161 192.207C334.411 192.298 334.679 192.408 334.965 192.523C335.538 192.754 336.184 192.985 336.909 193.326L338.018 193.83C338.408 194.007 338.792 194.226 339.2 194.438C340.023 194.84 340.852 195.357 341.741 195.879C345.541 198.23 348.922 201.195 351.747 204.653C352.356 205.461 352.996 206.221 353.501 206.988C353.763 207.364 354.025 207.717 354.257 208.076L354.866 209.109C355.293 209.76 355.61 210.392 355.914 210.933C356.061 211.201 356.207 211.45 356.329 211.687C356.451 211.924 356.548 212.137 356.639 212.338L357.09 213.238C357.133 213.346 357.19 213.449 357.261 213.542C357.231 213.429 357.19 213.319 357.139 213.213L356.743 212.289C356.652 212.089 356.554 211.87 356.451 211.627C356.347 211.383 356.195 211.134 356.055 210.86C355.762 210.307 355.445 209.644 355.043 209.006C354.836 208.672 354.629 208.319 354.434 207.954C354.239 207.589 353.946 207.237 353.69 206.854C353.191 206.076 352.575 205.309 351.948 204.489C350.527 202.747 348.971 201.12 347.292 199.625C345.595 198.154 343.782 196.822 341.869 195.642C340.974 195.119 340.133 194.609 339.304 194.213C338.89 194.007 338.5 193.794 338.085 193.605L336.958 193.119C336.245 192.785 335.575 192.566 334.99 192.347C334.697 192.244 334.429 192.14 334.173 192.055L333.479 191.848L332.51 191.575C332.408 191.549 332.304 191.531 332.199 191.52Z" fill="#263238"/>
<path d="M348.091 200.105C349.711 200.721 351.362 201.25 353.038 201.692C354.689 202.228 356.37 202.668 358.072 203.011C356.452 202.395 354.8 201.866 353.124 201.424C351.472 200.892 349.791 200.452 348.091 200.105Z" fill="#263238"/>
<path d="M348.298 210.976C348.381 210.468 348.418 209.953 348.408 209.438C348.408 208.489 348.408 207.17 348.408 205.723C348.408 204.276 348.286 202.956 348.206 202.008C348.194 201.492 348.129 200.979 348.011 200.476C347.97 200.99 347.97 201.506 348.011 202.02C348.048 203.06 348.085 204.324 348.127 205.729C348.17 207.133 348.194 208.398 348.225 209.438C348.202 209.952 348.226 210.467 348.298 210.976Z" fill="#263238"/>
<path d="M338.938 206.246C339.017 206.246 339.267 203.577 339.493 200.275C339.718 196.974 339.846 194.292 339.767 194.292C339.688 194.292 339.444 196.956 339.212 200.257C338.981 203.558 338.859 206.24 338.938 206.246Z" fill="#263238"/>
<path d="M350.583 194.031C350.057 193.965 349.527 193.948 348.998 193.982C348.024 193.982 346.671 194.019 345.178 194.068C343.685 194.116 342.338 194.177 341.364 194.232C340.834 194.239 340.306 194.289 339.785 194.384C340.311 194.45 340.841 194.466 341.37 194.432C342.345 194.432 343.697 194.402 345.19 194.347C346.683 194.292 348.03 194.238 349.011 194.183C349.538 194.177 350.064 194.126 350.583 194.031Z" fill="#263238"/>
<path d="M327.196 227.562C327.224 227.455 327.236 227.344 327.233 227.234C327.233 226.997 327.233 226.687 327.276 226.31C327.312 225.501 327.318 224.34 327.276 222.893C327.233 221.446 327.154 219.737 326.983 217.84C326.813 215.943 326.532 213.858 326.148 211.687C325.765 209.517 325.289 207.48 324.808 205.607C324.326 203.735 323.802 202.123 323.327 200.743C322.852 199.363 322.45 198.311 322.109 197.545C321.962 197.193 321.847 196.937 321.749 196.688C321.712 196.586 321.665 196.489 321.609 196.396C321.622 196.504 321.653 196.608 321.7 196.706L322.048 197.6C322.328 198.354 322.712 199.424 323.157 200.822C323.601 202.221 324.089 203.862 324.57 205.686C325.052 207.51 325.503 209.565 325.892 211.73C326.282 213.894 326.544 215.986 326.739 217.852C326.934 219.719 327.044 221.452 327.093 222.887C327.142 224.322 327.172 225.489 327.172 226.298C327.172 226.675 327.172 226.979 327.172 227.222C327.172 227.336 327.18 227.449 327.196 227.562Z" fill="#263238"/>
<path d="M325.954 211.456C326.23 211.834 326.547 212.18 326.898 212.49C327.507 213.098 328.379 213.913 329.366 214.782C330.353 215.652 331.285 216.399 331.974 216.928C332.326 217.234 332.71 217.501 333.119 217.725C332.809 217.375 332.467 217.055 332.096 216.77L329.555 214.569L327.032 212.344C326.702 212.015 326.341 211.717 325.954 211.456Z" fill="#263238"/>
<path d="M318.465 217.469C318.835 217.034 319.172 216.571 319.47 216.083L321.804 212.678L324.193 209.31C324.547 208.86 324.867 208.385 325.149 207.887C324.737 208.285 324.363 208.72 324.034 209.188C323.376 210.021 322.499 211.189 321.597 212.52C320.695 213.852 319.878 215.074 319.324 215.974C318.991 216.444 318.704 216.945 318.465 217.469Z" fill="#263238"/>
<path d="M322.389 198.542C322.346 198.609 324.826 200.281 327.94 202.276C331.054 204.27 333.607 205.838 333.649 205.772C333.692 205.705 331.212 204.033 328.092 202.038C324.972 200.044 322.425 198.482 322.389 198.542Z" fill="#263238"/>
<path d="M315.345 206.112C316.658 205.021 317.913 203.862 319.105 202.64C320.359 201.491 321.549 200.273 322.669 198.992C321.351 200.08 320.094 201.239 318.904 202.464C317.648 203.611 316.46 204.829 315.345 206.112Z" fill="#263238"/>
<path d="M313.608 205.948L311.476 205.772C309.959 205.648 308.487 205.197 307.162 204.452C306.513 204.075 305.841 203.738 305.151 203.443C302.512 202.391 299.563 202.58 296.724 202.434C292.071 202.2 287.513 201.038 283.318 199.017C283.066 198.906 282.854 198.721 282.709 198.488C282.27 197.691 283.087 196.98 283.788 196.548C287.389 194.335 291.051 192.098 295.127 190.997C299.204 189.897 303.841 190.085 307.314 192.475C311.397 195.284 312.889 201.047 313.578 205.948" fill="#008EFF"/>
<path d="M282.691 198.208C282.814 198.158 282.934 198.101 283.05 198.038L284.062 197.509C284.939 197.047 286.201 196.366 287.803 195.606C289.659 194.691 291.595 193.946 293.586 193.38C296.02 192.682 298.571 192.475 301.087 192.772C303.606 193.052 305.986 194.072 307.923 195.703C309.437 197.106 310.648 198.803 311.482 200.689C312.231 202.288 312.7 203.65 313.029 204.574L313.413 205.65C313.451 205.778 313.5 205.902 313.56 206.021C313.542 205.888 313.511 205.758 313.468 205.632C313.383 205.358 313.273 204.993 313.139 204.543C312.733 203.215 312.248 201.912 311.689 200.64C310.868 198.71 309.652 196.972 308.118 195.539C306.153 193.85 303.724 192.791 301.147 192.499C298.597 192.191 296.011 192.398 293.543 193.107C291.541 193.693 289.597 194.463 287.736 195.405C286.146 196.196 284.897 196.901 284.031 197.393L283.044 197.971C282.917 198.035 282.798 198.114 282.691 198.208Z" fill="#263238"/>
<path d="M287.815 200.974C287.858 201.035 290.655 199.236 294.055 196.949C297.455 194.663 300.179 192.754 300.148 192.693C300.118 192.633 297.315 194.432 293.915 196.718C290.515 199.004 287.773 200.908 287.815 200.974Z" fill="#263238"/>
<path d="M290.496 192.42C291.919 192.866 293.421 193.005 294.902 192.827C294.178 192.677 293.442 192.591 292.702 192.572C291.973 192.458 291.235 192.407 290.496 192.42Z" fill="#263238"/>
<path d="M303.018 190.182C303.551 191.441 304.25 192.623 305.096 193.697C304.878 193.049 304.57 192.435 304.182 191.873C303.876 191.257 303.484 190.688 303.018 190.182Z" fill="#263238"/>
<path d="M300.52 202.616C300.991 202.42 301.44 202.176 301.861 201.886C302.671 201.4 303.762 200.67 304.907 199.837C306.053 199.004 307.095 198.196 307.838 197.612C308.254 197.319 308.642 196.987 308.996 196.621C308.543 196.856 308.115 197.135 307.716 197.454L304.737 199.612C303.579 200.451 302.513 201.187 301.733 201.722C301.303 201.984 300.897 202.283 300.52 202.616Z" fill="#263238"/>
<path d="M310.47 215.001C312.506 214.46 314.937 216.436 315.345 218.497C315.753 220.558 314.986 222.662 314.084 224.577C312.143 228.829 309.264 232.589 305.663 235.576C302.03 238.548 297.497 240.209 292.8 240.288C293.659 236.299 292.574 232.128 293.05 228.073C293.474 224.501 295.1 221.178 297.663 218.648C300.225 216.118 303.572 214.53 307.156 214.144C308.453 214.004 309.959 213.803 310.476 215.001" fill="#008EFF"/>
<path d="M292.8 240.288C292.902 240.254 293 240.209 293.092 240.154C293.359 240.004 293.614 239.833 293.854 239.643C294.707 238.902 295.393 237.988 295.865 236.962C296.188 236.354 296.553 235.649 296.907 234.889C297.26 234.129 297.613 233.326 298.003 232.457C298.394 231.566 298.844 230.703 299.35 229.873C299.893 228.987 300.504 228.146 301.178 227.355C302.567 225.726 304.066 224.315 305.364 222.96C306.538 221.78 307.606 220.5 308.557 219.135C309.194 218.21 309.718 217.212 310.117 216.162C310.245 215.791 310.342 215.493 310.391 215.293C310.425 215.192 310.445 215.088 310.452 214.983C310.452 214.983 310.312 215.396 310.013 216.126C309.579 217.148 309.035 218.12 308.393 219.026C307.423 220.361 306.347 221.615 305.175 222.777C303.871 224.115 302.366 225.525 300.959 227.173C300.269 227.974 299.643 228.828 299.088 229.727C298.584 230.571 298.134 231.446 297.741 232.347L296.669 234.779C296.328 235.533 295.974 236.226 295.658 236.852C295.213 237.869 294.566 238.785 293.756 239.546C293.171 240.069 292.769 240.263 292.8 240.288Z" fill="#263238"/>
<path d="M303.323 236.974C303.311 236.513 303.247 236.054 303.134 235.606C302.976 234.767 302.714 233.618 302.36 232.365C302.007 231.113 301.629 230 301.324 229.204C301.191 228.762 301.005 228.337 300.77 227.939C300.852 228.391 300.975 228.834 301.136 229.265C301.391 230.079 301.745 231.198 302.086 232.444C302.427 233.691 302.695 234.822 302.939 235.649C303.023 236.102 303.152 236.546 303.323 236.974Z" fill="#263238"/>
<path d="M293.171 227.179C293.659 227.108 294.14 226.996 294.609 226.845C295.487 226.62 296.699 226.304 298.046 226C299.393 225.696 300.624 225.465 301.513 225.294C302.001 225.232 302.482 225.126 302.951 224.978C302.459 224.966 301.966 225.007 301.483 225.1C300.581 225.215 299.338 225.422 297.985 225.708C296.632 225.994 295.42 226.358 294.555 226.638C294.076 226.77 293.612 226.951 293.171 227.179Z" fill="#263238"/>
<path d="M310.879 230.025C310.856 229.49 310.782 228.959 310.659 228.438C310.477 227.471 310.196 226.133 309.812 224.68C309.428 223.227 309.026 221.92 308.709 220.984C308.553 220.469 308.349 219.971 308.1 219.494C308.189 220.02 308.319 220.539 308.49 221.044C308.758 221.993 309.136 223.3 309.514 224.747C309.892 226.194 310.208 227.526 310.434 228.48C310.538 229.007 310.687 229.523 310.879 230.025Z" fill="#263238"/>
<path d="M297.845 218.643C297.845 218.716 300.398 218.515 303.524 218.181C306.65 217.846 309.185 217.518 309.173 217.445C307.273 217.5 305.377 217.652 303.494 217.901C301.599 218.052 299.714 218.3 297.845 218.643Z" fill="#263238"/>
<path d="M299.71 249.408C299.71 249.487 308.648 249.547 319.671 249.547C330.694 249.547 339.633 249.487 339.633 249.408C339.633 249.329 330.694 249.268 319.671 249.268C308.648 249.268 299.71 249.329 299.71 249.408Z" fill="#455A64"/>
<path d="M305.925 260.881C305.925 260.96 311.951 261.026 319.379 261.026C326.807 261.026 332.827 260.96 332.827 260.881C332.827 260.802 326.807 260.741 319.379 260.741C311.951 260.741 305.925 260.832 305.925 260.881Z" fill="#455A64"/>
<path d="M305.693 262.522C305.693 262.601 311.713 262.662 319.141 262.662C326.569 262.662 332.589 262.601 332.589 262.522C332.589 262.443 326.569 262.382 319.141 262.382C311.713 262.382 305.693 262.443 305.693 262.522Z" fill="#455A64"/>
<path d="M305.693 259.531C305.693 259.61 311.921 259.671 319.604 259.671C327.288 259.671 333.515 259.61 333.515 259.531C333.515 259.452 327.288 259.391 319.604 259.391C311.921 259.391 305.693 259.452 305.693 259.531Z" fill="#455A64"/>
</svg>
