<svg width="12" height="11" viewBox="0 0 12 11" fill="none" xmlns="http://www.w3.org/2000/svg">
<path fill-rule="evenodd" clip-rule="evenodd" d="M12 5.15696C12 8.00507 9.3135 10.3139 6 10.3139C5.40574 10.3147 4.81394 10.2389 4.23975 10.0885C3.80175 10.3065 2.796 10.725 1.104 10.9976C0.954 11.0212 0.84 10.8679 0.89925 10.7309C1.16475 10.115 1.40475 9.29431 1.47675 8.54582C0.558 7.63967 0 6.45356 0 5.15696C0 2.30884 2.6865 0 6 0C9.3135 0 12 2.30884 12 5.15696ZM3.75 5.15696C3.75 5.35234 3.67098 5.53973 3.53033 5.67789C3.38968 5.81605 3.19891 5.89367 3 5.89367C2.80109 5.89367 2.61032 5.81605 2.46967 5.67789C2.32902 5.53973 2.25 5.35234 2.25 5.15696C2.25 4.96157 2.32902 4.77419 2.46967 4.63603C2.61032 4.49787 2.80109 4.42025 3 4.42025C3.19891 4.42025 3.38968 4.49787 3.53033 4.63603C3.67098 4.77419 3.75 4.96157 3.75 5.15696ZM6.75 5.15696C6.75 5.35234 6.67098 5.53973 6.53033 5.67789C6.38968 5.81605 6.19891 5.89367 6 5.89367C5.80109 5.89367 5.61032 5.81605 5.46967 5.67789C5.32902 5.53973 5.25 5.35234 5.25 5.15696C5.25 4.96157 5.32902 4.77419 5.46967 4.63603C5.61032 4.49787 5.80109 4.42025 6 4.42025C6.19891 4.42025 6.38968 4.49787 6.53033 4.63603C6.67098 4.77419 6.75 4.96157 6.75 5.15696ZM9 5.89367C9.19891 5.89367 9.38968 5.81605 9.53033 5.67789C9.67098 5.53973 9.75 5.35234 9.75 5.15696C9.75 4.96157 9.67098 4.77419 9.53033 4.63603C9.38968 4.49787 9.19891 4.42025 9 4.42025C8.80109 4.42025 8.61032 4.49787 8.46967 4.63603C8.32902 4.77419 8.25 4.96157 8.25 5.15696C8.25 5.35234 8.32902 5.53973 8.46967 5.67789C8.61032 5.81605 8.80109 5.89367 9 5.89367Z" fill="#00AA0B"/>
</svg>
