<svg width="13" height="11" viewBox="0 0 13 11" fill="none" xmlns="http://www.w3.org/2000/svg">
<path d="M9.08646 1.78774L11.1222 3.72563C11.208 3.80727 11.208 3.94047 11.1222 4.02211L6.19306 8.7143L4.09861 8.93559C3.81875 8.96567 3.58177 8.74008 3.61337 8.47368L3.84583 6.47993L8.775 1.78774C8.86076 1.7061 9.00069 1.7061 9.08646 1.78774ZM12.7427 1.29575L11.6413 0.24731C11.2983 -0.0792526 10.7408 -0.0792526 10.3955 0.24731L9.59653 1.00786C9.51076 1.0895 9.51076 1.2227 9.59653 1.30434L11.6323 3.24223C11.7181 3.32387 11.858 3.32387 11.9438 3.24223L12.7427 2.48168C13.0858 2.15297 13.0858 1.62231 12.7427 1.29575ZM8.66667 7.43813V9.62524H1.44444V2.75024H6.6309C6.70312 2.75024 6.77083 2.72231 6.82274 2.67504L7.72552 1.81567C7.89705 1.65239 7.77517 1.37524 7.53368 1.37524H1.08333C0.485243 1.37524 0 1.83715 0 2.40649V9.96899C0 10.5383 0.485243 11.0002 1.08333 11.0002H9.02778C9.62587 11.0002 10.1111 10.5383 10.1111 9.96899V6.57876C10.1111 6.34887 9.81997 6.23501 9.64844 6.39614L8.74566 7.25551C8.69601 7.30493 8.66667 7.36938 8.66667 7.43813Z" fill="url(#paint0_linear)"/>
<defs>
<linearGradient id="paint0_linear" x1="0" y1="5.50131" x2="13" y2="5.50131" gradientUnits="userSpaceOnUse">
<stop stop-color="#36A6FE"/>
<stop offset="1" stop-color="#3183FF"/>
</linearGradient>
</defs>
</svg>
