<svg id="Calque_1" data-name="Calque 1" xmlns="http://www.w3.org/2000/svg" xmlns:xlink="http://www.w3.org/1999/xlink" viewBox="0 0 399.49 334.03">
  <defs>
    <clipPath id="clip-path" transform="translate(32 -0.97)">
      <rect width="368" height="312" fill="none"/>
    </clipPath>
    <clipPath id="clip-path-2" transform="translate(32 -0.97)">
      <rect x="-2.1" y="109.9" width="52" height="52" transform="translate(-114.08 137.25) rotate(-80.58)" fill="none"/>
    </clipPath>
    <clipPath id="clip-path-3" transform="translate(32 -0.97)">
      <rect x="36.73" y="145.73" width="31.54" height="31.54" transform="matrix(0.98, -0.19, 0.19, 0.98, -29.97, 13.05)" fill="none"/>
    </clipPath>
  </defs>
  <g clip-path="url(#clip-path)">
    <g>
      <path d="M68.66,62.17H76C76,51.76,65.89,47,57.66,45.93v-7.6H50.33v7.6C42.1,47,32,51.76,32,62.17c0,9.92,9.77,15.08,18.33,16.24V96.63c-5.31-.92-11-3.75-11-8.8H32c0,9.5,8.89,15.11,18.33,16.27v7.57h7.33v-7.59C65.89,103,76,98.24,76,87.83S65.89,72.69,57.66,71.59V53.37c4.88.87,11,3.45,11,8.8Zm-29.33,0c0-5.35,6.12-7.93,11-8.8V71C45.3,70,39.33,67.29,39.33,62.17ZM68.66,87.83c0,5.35-6.12,7.93-11,8.8V79c4.88.88,11,3.45,11,8.8Z" transform="translate(32 -0.97)" fill="#50acf8"/>
      <g clip-path="url(#clip-path-2)">
        <path d="M33.69,129.84l4.28.71c1-6.06-4.43-9.81-9.12-11.24l.73-4.43-4.27-.71-.73,4.43c-4.91-.16-11.26,1.63-12.26,7.7-1,5.78,4.24,9.73,9.11,11.24l-1.76,10.62c-3-1-6.05-3.25-5.56-6.19l-4.27-.71c-.92,5.53,3.72,9.66,9.11,11.25l-.73,4.41,4.27.71.74-4.42c4.9.16,11.25-1.63,12.26-7.7s-4.43-9.8-9.12-11.24l1.76-10.62c2.76,1,6.08,3.07,5.56,6.19ZM16.59,127c.52-3.11,4.34-4,7.27-4.06L22.15,133.2C19.31,132.17,16.1,130,16.59,127Zm14.62,17.8c-.52,3.12-4.33,4-7.26,4.07l1.7-10.26c2.76,1,6.08,3.07,5.56,6.19Z" transform="translate(32 -0.97)" fill="#50acf8"/>
      </g>
      <g clip-path="url(#clip-path-3)">
        <path d="M56.77,156l2.58-.51c-.71-3.66-4.59-4.63-7.56-4.45l-.52-2.67-2.58.5.52,2.67c-2.82.95-6.05,3.32-5.33,7,.68,3.49,4.47,4.64,7.56,4.46l1.25,6.41c-1.93,0-4.13-.57-4.47-2.34l-2.58.5c.65,3.34,4.16,4.7,7.56,4.46l.52,2.66,2.58-.5-.52-2.67c2.82-.95,6-3.31,5.33-7s-4.59-4.63-7.56-4.45l-1.25-6.41c1.78,0,4.11.45,4.47,2.34Zm-10.31,2c-.37-1.88,1.61-3.21,3.26-3.85l1.21,6.19C49.1,160.35,46.81,159.79,46.46,158Zm12.08,7c.36,1.88-1.61,3.21-3.27,3.85l-1.21-6.19c1.78,0,4.11.46,4.48,2.34Z" transform="translate(32 -0.97)" fill="#50acf8"/>
      </g>
      <path d="M176.53,26.79C148.9,51.45,40.11,168.34,71.75,268.55c6,19,41.08,19,61,19.53,49.54,1.24,104.94-.91,145.74.39,20.68.66,68.66-32.76,80.91-57.73,6.05-12.23,5.22-36.83-1.31-48.79s-18.79-29.24-25.29-41.23C314.37,106.8,315.6,70.9,298.13,36.47,281.93,4.52,228.49-19.56,176.53,26.79Z" transform="translate(32 -0.97)" fill="#008eff"/>
      <path d="M176.53,26.79C148.9,51.45,40.11,168.34,71.75,268.55c6,19,41.08,19,61,19.53,49.54,1.24,104.94-.91,145.74.39,20.68.66,68.66-32.76,80.91-57.73,6.05-12.23,5.22-36.83-1.31-48.79s-18.79-29.24-25.29-41.23C314.37,106.8,315.6,70.9,298.13,36.47,281.93,4.52,228.49-19.56,176.53,26.79Z" transform="translate(32 -0.97)" fill="#fff" opacity="0.7" style="isolation: isolate"/>
      <path d="M342.72,45.84H133V169.75H342.72Z" transform="translate(32 -0.97)" fill="#263238"/>
      <path d="M237.68,120.21a26.09,26.09,0,1,0-26.09-26.09A26.09,26.09,0,0,0,237.68,120.21Z" transform="translate(32 -0.97)" fill="#fff"/>
      <path d="M251.91,95.08,230.19,82.54v25.08Z" transform="translate(32 -0.97)" fill="#263238"/>
      <path d="M340,141.41H135.75v4H340Z" transform="translate(32 -0.97)" fill="#999"/>
      <path d="M250.22,141.41H135.75v4H250.22Z" transform="translate(32 -0.97)" fill="#008eff"/>
      <path d="M138,152.58h-2v7.74h2Z" transform="translate(32 -0.97)" fill="#fff"/>
      <path d="M141.4,152.58h-2v7.74h2Z" transform="translate(32 -0.97)" fill="#fff"/>
      <path d="M159.09,152.58h-7.74v7.74h7.74Z" transform="translate(32 -0.97)" fill="#fff"/>
      <path d="M169.7,156.45l6.7-3.87v7.75Z" transform="translate(32 -0.97)" fill="#fff"/>
      <path d="M169.7,152.58h-2v7.74h2Z" transform="translate(32 -0.97)" fill="#fff"/>
      <path d="M191.43,156.45l-6.7-3.87v7.75Z" transform="translate(32 -0.97)" fill="#fff"/>
      <path d="M191.44,160.33h2v-7.74h-2Z" transform="translate(32 -0.97)" fill="#fff"/>
      <path d="M206.18,152.44l-3.87,4.67h7.74Z" transform="translate(32 -0.97)" fill="#fff"/>
      <path d="M210.2,160.47v-2h-8v2Z" transform="translate(32 -0.97)" fill="#fff"/>
      <path d="M339.4,152.44H325.73v7.89H339.4Z" transform="translate(32 -0.97)" fill="none" stroke="#fff" stroke-miterlimit="10" stroke-width="0.93"/>
      <path d="M314.16,160.33h-2.44v-2.11" transform="translate(32 -0.97)" fill="none" stroke="#fff" stroke-miterlimit="10" stroke-width="0.93"/>
      <path d="M320.17,158.22v2.11h-2.35" transform="translate(32 -0.97)" fill="none" stroke="#fff" stroke-miterlimit="10" stroke-width="0.93"/>
      <path d="M317.82,152.44h2.35v2.23" transform="translate(32 -0.97)" fill="none" stroke="#fff" stroke-miterlimit="10" stroke-width="0.93"/>
      <path d="M311.72,154.67v-2.23h2.44" transform="translate(32 -0.97)" fill="none" stroke="#fff" stroke-miterlimit="10" stroke-width="0.93"/>
      <g opacity="0.1">
        <path d="M172.14,45.84h23.73l-39,123.91h-24" transform="translate(32 -0.97)" fill="#fff" opacity="0.1" style="isolation: isolate"/>
        <path d="M172.14,45.84h23.73l-39,123.91h-24" transform="translate(32 -0.97)" fill="none" stroke="#263238" stroke-linecap="round" stroke-linejoin="round" stroke-width="0.93" opacity="0.1" style="isolation: isolate"/>
      </g>
      <path d="M279.24,169.75,318.45,45.84h23.73L303.23,169.75Z" transform="translate(32 -0.97)" fill="#fff" stroke="#263238" stroke-linecap="round" stroke-linejoin="round" stroke-width="0.93" opacity="0.1" style="isolation: isolate"/>
      <g opacity="0.1">
        <path d="M342.72,60.92l-25.47,80.49-1.27,4-2.22,7-2,6.46-3.44,10.85h6.18l5.44-17.31,2.2-7,1.26-4,19.36-61.59" transform="translate(32 -0.97)" fill="#fff" opacity="0.1" style="isolation: isolate"/>
        <path d="M342.72,60.92l-25.47,80.49-1.27,4-2.22,7-2,6.46-3.44,10.85h6.18l5.44-17.31,2.2-7,1.26-4,19.36-61.59" transform="translate(32 -0.97)" fill="none" stroke="#263238" stroke-linecap="round" stroke-linejoin="round" stroke-width="0.93" opacity="0.1" style="isolation: isolate"/>
      </g>
      <path d="M342.72,34.64H133v11.2H342.72Z" transform="translate(32 -0.97)" fill="#008eff" stroke="#263238" stroke-linecap="round" stroke-linejoin="round" stroke-width="0.93"/>
      <path d="M144.86,43.78a3.46,3.46,0,1,0-3.46-3.46A3.46,3.46,0,0,0,144.86,43.78Z" transform="translate(32 -0.97)" fill="#fff"/>
      <path d="M158.72,40.32a3.47,3.47,0,0,1-4.14,3.41,3.6,3.6,0,0,1-1.78-.95,3.56,3.56,0,0,1-1-1.78,3.51,3.51,0,0,1,.2-2,3.46,3.46,0,0,1,1.27-1.56,3.52,3.52,0,0,1,1.93-.58,3.47,3.47,0,0,1,3.47,3.46Z" transform="translate(32 -0.97)" fill="#fff"/>
      <path d="M169.05,40.32a3.47,3.47,0,0,1-.59,1.92,3.47,3.47,0,0,1-3.55,1.47,3.38,3.38,0,0,1-1.77-1,3.46,3.46,0,0,1,.52-5.32,3.47,3.47,0,0,1,5.39,2.88Z" transform="translate(32 -0.97)" fill="#fff"/>
      <path d="M46.32,292.84H358.75" transform="translate(32 -0.97)" fill="none" stroke="#263238" stroke-linecap="round" stroke-linejoin="round"/>
      <path d="M170.51,270s-4.27-9.31.6-18.49,6.29-11.33,3.19-13.22-4.53,7.34-4.53,7.34a20.72,20.72,0,0,1-.46-13c2.17-6.64,3.52-17.46.57-18.62s-.57,13.49-3.13,18.49a43.38,43.38,0,0,1-2.51-10.9c-.35-5.33.2-13.85-2.13-16s-3.83-.68-1.51,11.09A123.45,123.45,0,0,1,162.86,238s-5.06-15.44-8.46-15.86-3.39,4.53-.48,8.89,8.52,12.09,9.44,16.11c0,0-5.56-11.62-10.58-8.06s4.35,10.57,8.53,13.11,7.06,18.44,7.06,18.44Z" transform="translate(32 -0.97)" fill="#008eff"/>
      <path d="M170.51,270s-4.27-9.31.6-18.49,6.29-11.33,3.19-13.22-4.53,7.34-4.53,7.34a20.72,20.72,0,0,1-.46-13c2.17-6.64,3.52-17.46.57-18.62s-.57,13.49-3.13,18.49a43.38,43.38,0,0,1-2.51-10.9c-.35-5.33.2-13.85-2.13-16s-3.83-.68-1.51,11.09A123.45,123.45,0,0,1,162.86,238s-5.06-15.44-8.46-15.86-3.39,4.53-.48,8.89,8.52,12.09,9.44,16.11c0,0-5.56-11.62-10.58-8.06s4.35,10.57,8.53,13.11,7.06,18.44,7.06,18.44Z" transform="translate(32 -0.97)" opacity="0.2" style="isolation: isolate"/>
      <path d="M167.16,273.8s4.16-9.37-.83-18.48-6.42-11.25-3.34-13.17,4.62,7.27,4.62,7.27a20.69,20.69,0,0,0,.31-13c-2.25-6.61-3.74-17.38-.76-18.61s.76,13.48,3.35,18.43a43,43,0,0,0,2.38-10.92c.29-5.34-.37-13.85,1.94-16.07s3.82-.76,1.67,11.08a122.54,122.54,0,0,0-2,21.37s4.87-15.52,8.31-16,3.45,4.5.59,8.88-8.45,12.25-9.32,16.26c0,0,5.41-11.7,10.46-8.21s-4.19,10.64-8.36,13.24-6.85,18.54-6.85,18.54Z" transform="translate(32 -0.97)" fill="#008eff"/>
      <path d="M186.33,267.14H152l2.78,24.57h28.77Z" transform="translate(32 -0.97)" fill="#263238"/>
      <path d="M349.92,226.26H302.71v20.47h47.21Z" transform="translate(32 -0.97)" fill="#008eff"/>
      <path d="M349.92,226.26H302.71v20.47h47.21Z" transform="translate(32 -0.97)" fill="#fff" opacity="0.8" style="isolation: isolate"/>
      <path d="M306.5,228.26h43.42v-2H306.55Z" transform="translate(32 -0.97)" opacity="0.2" style="isolation: isolate"/>
      <path d="M306.5,230l39.17.84-39.17.83Z" transform="translate(32 -0.97)" opacity="0.2" style="isolation: isolate"/>
      <path d="M306.5,237.57l41.48.71-41.48.59Z" transform="translate(32 -0.97)" opacity="0.2" style="isolation: isolate"/>
      <path d="M306.5,242l41.11.83-41.11.84Z" transform="translate(32 -0.97)" opacity="0.2" style="isolation: isolate"/>
      <path d="M349.92,232.92l-39.77,1.2,39.77.83Z" transform="translate(32 -0.97)" opacity="0.2" style="isolation: isolate"/>
      <path d="M244.57,236.39a9.29,9.29,0,0,0,9.28,9.27H352.1a.71.71,0,0,1,.48.19.7.7,0,0,1,.2.49v.75a.75.75,0,0,1,0,.26.57.57,0,0,1-.15.23.86.86,0,0,1-.22.15.75.75,0,0,1-.26.05H253.34a11.39,11.39,0,0,1-10.54-7.09A11.5,11.5,0,0,1,253.63,225H352.1a.68.68,0,0,1,.68.68v.75a.81.81,0,0,1,0,.27.54.54,0,0,1-.15.22.86.86,0,0,1-.22.15.58.58,0,0,1-.26,0h-98A9.53,9.53,0,0,0,244.57,236.39Z" transform="translate(32 -0.97)" fill="#263238"/>
      <path d="M244.57,236.39a9.29,9.29,0,0,0,9.28,9.27H352.1a.71.71,0,0,1,.48.19.7.7,0,0,1,.2.49v.75a.75.75,0,0,1,0,.26.57.57,0,0,1-.15.23.86.86,0,0,1-.22.15.75.75,0,0,1-.26.05H253.34a11.39,11.39,0,0,1-10.54-7.09A11.5,11.5,0,0,1,253.63,225H352.1a.68.68,0,0,1,.68.68v.75a.81.81,0,0,1,0,.27.54.54,0,0,1-.15.22.86.86,0,0,1-.22.15.58.58,0,0,1-.26,0h-98A9.53,9.53,0,0,0,244.57,236.39Z" transform="translate(32 -0.97)" fill="#fff" opacity="0.4" style="isolation: isolate"/>
      <path d="M208.74,236.49A10.24,10.24,0,0,0,219,246.74H306.5V226.26H219a10.26,10.26,0,0,0-10.25,10.23Z" transform="translate(32 -0.97)" fill="#008eff"/>
      <path d="M306.5,226.26v20.5H219a10.25,10.25,0,1,1,0-20.5Z" transform="translate(32 -0.97)" fill="#fff" opacity="0.7" style="isolation: isolate"/>
      <path d="M306.5,231.67V230l-87.22.71Z" transform="translate(32 -0.97)" opacity="0.2" style="isolation: isolate"/>
      <path d="M306.5,238.87v-1.3L267.35,239Z" transform="translate(32 -0.97)" opacity="0.2" style="isolation: isolate"/>
      <path d="M306.5,243.67V242l-63.13,1Z" transform="translate(32 -0.97)" opacity="0.2" style="isolation: isolate"/>
      <path d="M218.85,228.26a6.8,6.8,0,0,0-4.54,1.75,16.4,16.4,0,0,1,1.29,3.33l87.51.68-87.33.21a10.93,10.93,0,0,1-.08,4.66l58.92,1.29-59.49.69a21.14,21.14,0,0,1-2,4.06A10.25,10.25,0,0,1,219,226.24H306.5v2Z" transform="translate(32 -0.97)" opacity="0.2" style="isolation: isolate"/>
      <path d="M209.55,236.39a9.26,9.26,0,0,0,.71,3.55,9.36,9.36,0,0,0,2,3,9.31,9.31,0,0,0,6.56,2.72H308a.69.69,0,0,1,.48.19.7.7,0,0,1,.2.49v.75a.58.58,0,0,1,0,.26.68.68,0,0,1-.14.23.91.91,0,0,1-.23.15.75.75,0,0,1-.26.05H218.35A11.38,11.38,0,0,1,207,236.31,11.58,11.58,0,0,1,218.64,225H308a.66.66,0,0,1,.48.2.67.67,0,0,1,.2.48v.75a.62.62,0,0,1,0,.27.64.64,0,0,1-.14.22.91.91,0,0,1-.23.15.58.58,0,0,1-.26,0H219.1A9.54,9.54,0,0,0,209.55,236.39Z" transform="translate(32 -0.97)" fill="#263238"/>
      <path d="M219.28,233.78V242l3-3,2.88,2.88v-8.13Z" transform="translate(32 -0.97)" fill="#008eff"/>
      <path d="M344.33,271.43H216.93v20.5h127.4Z" transform="translate(32 -0.97)" fill="#008eff"/>
      <path d="M344.33,271.43H216.93v20.5h127.4Z" transform="translate(32 -0.97)" fill="#fff" opacity="0.7" style="isolation: isolate"/>
      <path d="M344.33,276.85v-1.67l-87.24.7Z" transform="translate(32 -0.97)" opacity="0.2" style="isolation: isolate"/>
      <path d="M344.33,284v-1.29l-39.17,1.4Z" transform="translate(32 -0.97)" opacity="0.2" style="isolation: isolate"/>
      <path d="M344.33,288.84v-1.66l-63.15,1Z" transform="translate(32 -0.97)" opacity="0.2" style="isolation: isolate"/>
      <path d="M245.41,271.43l-1.85,15.28,2.18-2.32a18.87,18.87,0,0,0,4,7.55,22.16,22.16,0,0,0,3.22-5.88l59.5-.68-58.92-1.29a12,12,0,0,0,.28-2.54,11.81,11.81,0,0,0-.2-2.13l87.3-.21-87.51-.69a17.22,17.22,0,0,0-1.28-3.33,6.83,6.83,0,0,1,4.53-1.75H344.3v-2Z" transform="translate(32 -0.97)" opacity="0.2" style="isolation: isolate"/>
      <path d="M247.37,281.56a9.29,9.29,0,0,0,9.29,9.27H345.8a.75.75,0,0,1,.26.05.66.66,0,0,1,.22.15.54.54,0,0,1,.15.22.58.58,0,0,1,.06.26v.76a.58.58,0,0,1-.06.26.64.64,0,0,1-.14.22.65.65,0,0,1-.23.15.58.58,0,0,1-.26.05H207.11a11.28,11.28,0,0,1-4.37-.87,11.39,11.39,0,0,1-6.16-6.21,11.34,11.34,0,0,1-.84-4.38,11.58,11.58,0,0,1,11.67-11.3H345.79a.75.75,0,0,1,.26.05.91.91,0,0,1,.23.15.86.86,0,0,1,.15.22.75.75,0,0,1,.05.26v.76a.75.75,0,0,1-.05.26.71.71,0,0,1-.15.22.57.57,0,0,1-.23.15.58.58,0,0,1-.26.06H256.93A9.46,9.46,0,0,0,247.37,281.56Z" transform="translate(32 -0.97)" fill="#008eff"/>
      <path d="M247.37,281.56a9.29,9.29,0,0,0,9.29,9.27H345.8a.75.75,0,0,1,.26.05.66.66,0,0,1,.22.15.54.54,0,0,1,.15.22.58.58,0,0,1,.06.26v.76a.58.58,0,0,1-.06.26.64.64,0,0,1-.14.22.65.65,0,0,1-.23.15.58.58,0,0,1-.26.05H207.11a11.28,11.28,0,0,1-4.37-.87,11.39,11.39,0,0,1-6.16-6.21,11.34,11.34,0,0,1-.84-4.38,11.58,11.58,0,0,1,11.67-11.3H345.79a.75.75,0,0,1,.26.05.91.91,0,0,1,.23.15.86.86,0,0,1,.15.22.75.75,0,0,1,.05.26v.76a.75.75,0,0,1-.05.26.71.71,0,0,1-.15.22.57.57,0,0,1-.23.15.58.58,0,0,1-.26.06H256.93A9.46,9.46,0,0,0,247.37,281.56Z" transform="translate(32 -0.97)" opacity="0.2" style="isolation: isolate"/>
      <path d="M247.37,281.56a9.29,9.29,0,0,0,9.29,9.27H345.8a.75.75,0,0,1,.26.05.66.66,0,0,1,.22.15.54.54,0,0,1,.15.22.58.58,0,0,1,.06.26v.76a.58.58,0,0,1-.06.26.64.64,0,0,1-.14.22.65.65,0,0,1-.23.15.58.58,0,0,1-.26.05H256.12a11.37,11.37,0,0,1-8.05-3.39,11.45,11.45,0,0,1,8.4-19.39h89.32a.75.75,0,0,1,.26.05.57.57,0,0,1,.23.15.86.86,0,0,1,.15.22.75.75,0,0,1,.05.26v.76a.75.75,0,0,1-.05.26.86.86,0,0,1-.15.22.7.7,0,0,1-.49.2H256.93A9.51,9.51,0,0,0,247.37,281.56Z" transform="translate(32 -0.97)" fill="#008eff"/>
      <path d="M257.09,279v8.22l3-3,2.89,2.88V279Z" transform="translate(32 -0.97)" fill="#008eff"/>
      <path d="M247.37,281.56a9.29,9.29,0,0,0,9.29,9.27H345.8a.75.75,0,0,1,.26.05.66.66,0,0,1,.22.15.54.54,0,0,1,.15.22.58.58,0,0,1,.06.26v.76a.58.58,0,0,1-.06.26.64.64,0,0,1-.14.22.65.65,0,0,1-.23.15.58.58,0,0,1-.26.05H256.12a11.37,11.37,0,0,1-8.05-3.39,11.45,11.45,0,0,1,8.4-19.39h89.32a.75.75,0,0,1,.26.05.57.57,0,0,1,.23.15.86.86,0,0,1,.15.22.75.75,0,0,1,.05.26v.76a.75.75,0,0,1-.05.26.86.86,0,0,1-.15.22.7.7,0,0,1-.49.2H256.93A9.51,9.51,0,0,0,247.37,281.56Z" transform="translate(32 -0.97)" fill="#fff" opacity="0.2" style="isolation: isolate"/>
      <path d="M354.3,248.84H226.91v20.51H354.3Z" transform="translate(32 -0.97)" fill="#008eff"/>
      <path d="M354.3,248.84H226.91v20.51H354.3Z" transform="translate(32 -0.97)" fill="#fff" opacity="0.8" style="isolation: isolate"/>
      <path d="M354.3,254.26v-1.67l-87.22.7Z" transform="translate(32 -0.97)" opacity="0.2" style="isolation: isolate"/>
      <path d="M354.3,261.45v-1.29l-39.15,1.41Z" transform="translate(32 -0.97)" opacity="0.2" style="isolation: isolate"/>
      <path d="M354.3,266.25v-1.66l-63.13,1Z" transform="translate(32 -0.97)" opacity="0.2" style="isolation: isolate"/>
      <path d="M255.36,248.84l-1.85,15.29,2.18-2.33a18.87,18.87,0,0,0,4,7.56,22.56,22.56,0,0,0,3.22-5.9l59.49-.68-58.93-1.28a12.14,12.14,0,0,0,.29-2.54,10.83,10.83,0,0,0-.21-2.13l87.31-.22-87.51-.69a16.55,16.55,0,0,0-1.29-3.32,6.8,6.8,0,0,1,4.54-1.75h87.72v-2Z" transform="translate(32 -0.97)" opacity="0.2" style="isolation: isolate"/>
      <path d="M257.36,259a9.29,9.29,0,0,0,9.28,9.24h89.14a.75.75,0,0,1,.26,0,.66.66,0,0,1,.22.15.54.54,0,0,1,.15.22.58.58,0,0,1,.06.26v.76a.68.68,0,0,1-.21.48.66.66,0,0,1-.48.2H224.1A11.38,11.38,0,0,1,216,267a11.49,11.49,0,0,1-2.46-3.72,11.34,11.34,0,0,1-.84-4.38,11.58,11.58,0,0,1,11.67-11.3H355.78a.75.75,0,0,1,.26,0,.86.86,0,0,1,.22.15.54.54,0,0,1,.15.22.58.58,0,0,1,.06.26V249a.58.58,0,0,1-.06.26.48.48,0,0,1-.15.22.54.54,0,0,1-.22.15.58.58,0,0,1-.26.06H266.91A9.5,9.5,0,0,0,257.36,259Z" transform="translate(32 -0.97)" fill="#008eff"/>
      <path d="M257.36,259a9.29,9.29,0,0,0,9.28,9.24h89.14a.75.75,0,0,1,.26,0,.66.66,0,0,1,.22.15.54.54,0,0,1,.15.22.58.58,0,0,1,.06.26v.76a.68.68,0,0,1-.21.48.66.66,0,0,1-.48.2H224.1A11.38,11.38,0,0,1,216,267a11.49,11.49,0,0,1-2.46-3.72,11.34,11.34,0,0,1-.84-4.38,11.58,11.58,0,0,1,11.67-11.3H355.78a.75.75,0,0,1,.26,0,.86.86,0,0,1,.22.15.54.54,0,0,1,.15.22.58.58,0,0,1,.06.26V249a.58.58,0,0,1-.06.26.48.48,0,0,1-.15.22.54.54,0,0,1-.22.15.58.58,0,0,1-.26.06H266.91A9.5,9.5,0,0,0,257.36,259Z" transform="translate(32 -0.97)" fill="#fff" opacity="0.4" style="isolation: isolate"/>
      <path d="M257.36,259a9.29,9.29,0,0,0,9.28,9.24h89.14a.75.75,0,0,1,.26,0,.66.66,0,0,1,.22.15.54.54,0,0,1,.15.22.58.58,0,0,1,.06.26v.76a.68.68,0,0,1-.21.48.66.66,0,0,1-.48.2H266.13a11.19,11.19,0,0,1-4.38-.87,11.33,11.33,0,0,1-3.7-2.49,11.18,11.18,0,0,1-2.46-3.72,11.35,11.35,0,0,1-.85-4.38,11.58,11.58,0,0,1,11.68-11.3h89.36a.75.75,0,0,1,.26,0,.86.86,0,0,1,.22.15.54.54,0,0,1,.15.22.58.58,0,0,1,.06.26V249a.58.58,0,0,1-.06.26.48.48,0,0,1-.15.22.54.54,0,0,1-.22.15.58.58,0,0,1-.26.06H266.91A9.5,9.5,0,0,0,257.36,259Z" transform="translate(32 -0.97)" fill="#008eff"/>
      <path d="M274.14,253.45v8.22l3-3,2.89,2.88v-8.13Z" transform="translate(32 -0.97)" fill="#263238"/>
      <path d="M257.36,259a9.29,9.29,0,0,0,9.28,9.24h89.14a.75.75,0,0,1,.26,0,.66.66,0,0,1,.22.15.54.54,0,0,1,.15.22.58.58,0,0,1,.06.26v.76a.68.68,0,0,1-.21.48.66.66,0,0,1-.48.2H266.13a11.19,11.19,0,0,1-4.38-.87,11.33,11.33,0,0,1-3.7-2.49,11.18,11.18,0,0,1-2.46-3.72,11.35,11.35,0,0,1-.85-4.38,11.58,11.58,0,0,1,11.68-11.3h89.36a.75.75,0,0,1,.26,0,.86.86,0,0,1,.22.15.54.54,0,0,1,.15.22.58.58,0,0,1,.06.26V249a.58.58,0,0,1-.06.26.48.48,0,0,1-.15.22.54.54,0,0,1-.22.15.58.58,0,0,1-.26.06H266.91A9.5,9.5,0,0,0,257.36,259Z" transform="translate(32 -0.97)" fill="#fff" opacity="0.6" style="isolation: isolate"/>
      <path d="M342.91,181.08h-47.2v20.47h47.2Z" transform="translate(32 -0.97)" fill="#008eff"/>
      <path d="M342.91,181.08h-47.2v20.47h47.2Z" transform="translate(32 -0.97)" fill="#fff" opacity="0.7" style="isolation: isolate"/>
      <path d="M365.33,203.67H237.94v20.5H365.33Z" transform="translate(32 -0.97)" fill="#008eff"/>
      <path d="M365.33,203.67H237.94v20.5H365.33Z" transform="translate(32 -0.97)" fill="#fff" opacity="0.7" style="isolation: isolate"/>
      <path d="M365.33,209.09v-1.68l-87.22.71Z" transform="translate(32 -0.97)" opacity="0.2" style="isolation: isolate"/>
      <path d="M365.33,216.28V215l-39.15,1.4Z" transform="translate(32 -0.97)" opacity="0.2" style="isolation: isolate"/>
      <path d="M365.33,221.08v-1.67l-63.13,1Z" transform="translate(32 -0.97)" opacity="0.2" style="isolation: isolate"/>
      <path d="M266.42,203.67,264.57,219l2.18-2.33a18.62,18.62,0,0,0,4,7.56A22.41,22.41,0,0,0,274,218.3l59.5-.69-58.92-1.28a11.1,11.1,0,0,0,.08-4.67l87.3-.22-87.51-.68a17,17,0,0,0-1.28-3.33,6.78,6.78,0,0,1,4.53-1.75H365.3v-2Z" transform="translate(32 -0.97)" opacity="0.2" style="isolation: isolate"/>
      <path d="M268.39,213.83a9.25,9.25,0,0,0,9.28,9.27h89.14a.68.68,0,0,1,.68.68v.75a.69.69,0,0,1-.42.64.75.75,0,0,1-.26.05H228.12a11.38,11.38,0,0,1-8.08-3.36,11.53,11.53,0,0,1-3.3-8.11,11.56,11.56,0,0,1,11.68-11.29H366.81a.68.68,0,0,1,.68.68v.76a.8.8,0,0,1-.05.26.86.86,0,0,1-.15.22.66.66,0,0,1-.22.15.58.58,0,0,1-.26.05H277.94A9.42,9.42,0,0,0,268.39,213.83Z" transform="translate(32 -0.97)" fill="#263238"/>
      <path d="M268.39,213.83a9.25,9.25,0,0,0,9.28,9.27h89.14a.68.68,0,0,1,.68.68v.75a.69.69,0,0,1-.42.64.75.75,0,0,1-.26.05H228.12a11.38,11.38,0,0,1-8.08-3.36,11.53,11.53,0,0,1-3.3-8.11,11.56,11.56,0,0,1,11.68-11.29H366.81a.68.68,0,0,1,.68.68v.76a.8.8,0,0,1-.05.26.86.86,0,0,1-.15.22.66.66,0,0,1-.22.15.58.58,0,0,1-.26.05H277.94A9.42,9.42,0,0,0,268.39,213.83Z" transform="translate(32 -0.97)" fill="#fff" opacity="0.2" style="isolation: isolate"/>
      <path d="M268.39,213.83a9.25,9.25,0,0,0,9.28,9.27h89.14a.68.68,0,0,1,.68.68v.75a.69.69,0,0,1-.42.64.75.75,0,0,1-.26.05H277.15a11.38,11.38,0,0,1-11.38-11.47,11.56,11.56,0,0,1,11.68-11.29h89.36a.68.68,0,0,1,.68.68v.76a.8.8,0,0,1-.05.26.86.86,0,0,1-.15.22.66.66,0,0,1-.22.15.58.58,0,0,1-.26.05H277.94A9.42,9.42,0,0,0,268.39,213.83Z" transform="translate(32 -0.97)" fill="#263238"/>
      <path d="M278.11,211.19v8.22l3-3,2.88,2.88v-8.13Z" transform="translate(32 -0.97)" fill="#263238"/>
      <path d="M268.39,213.83a9.25,9.25,0,0,0,9.28,9.27h89.14a.68.68,0,0,1,.68.68v.75a.69.69,0,0,1-.42.64.75.75,0,0,1-.26.05H277.15a11.38,11.38,0,0,1-11.38-11.47,11.56,11.56,0,0,1,11.68-11.29h89.36a.68.68,0,0,1,.68.68v.76a.8.8,0,0,1-.05.26.86.86,0,0,1-.15.22.66.66,0,0,1-.22.15.58.58,0,0,1-.26.05H277.94A9.42,9.42,0,0,0,268.39,213.83Z" transform="translate(32 -0.97)" fill="#fff" opacity="0.4" style="isolation: isolate"/>
      <path d="M250,81H-32V335H250Z" transform="translate(32 -0.97)" fill="none"/>
    </g>
  </g>
</svg>
