<svg width="18" height="16" viewBox="0 0 18 16" fill="none" xmlns="http://www.w3.org/2000/svg">
<path d="M6.3 13.2089L8.1 14.0978V8.24C8.09901 8.00681 8.00527 7.78334 7.839 7.61778L2.007 1.77778H16.011L10.188 7.61778C10.0217 7.78334 9.92799 8.00681 9.927 8.24L9.9 15.1111L11.7 16V8.60444L17.622 2.66667C17.8589 2.4293 17.9942 2.11102 18 1.77778V0.888889C18 0.653141 17.9052 0.427049 17.7364 0.26035C17.5676 0.0936507 17.3387 0 17.1 0H0.9C0.661305 0 0.432387 0.0936507 0.263604 0.26035C0.0948213 0.427049 0 0.653141 0 0.888889V1.77778C0.00575775 2.11102 0.141107 2.4293 0.378 2.66667L6.3 8.60444V13.2089Z" fill="#008EFF"/>
</svg>
