<svg width="18" height="18" viewBox="0 0 18 18" fill="none" xmlns="http://www.w3.org/2000/svg">
<path d="M17.3216 8.32159C16.9469 8.32159 16.6432 8.62527 16.6432 9C16.6432 13.2146 13.2146 16.6432 9 16.6432C4.78561 16.6432 1.35679 13.2146 1.35679 9C1.35679 4.78561 4.78561 1.35679 9 1.35679C9.3747 1.35679 9.67841 1.05311 9.67841 0.67841C9.67841 0.30368 9.3747 0 9 0C4.03734 0 0 4.03734 0 9C0 13.9624 4.03734 18 9 18C13.9624 18 18 13.9624 18 9C18 8.6253 17.6963 8.32159 17.3216 8.32159Z" fill="white"/>
<path d="M4.03442 7.32513C4.07175 7.29214 4.46147 7.49488 4.50171 7.51272C4.8975 7.68787 5.28068 7.89073 5.64812 8.12011C6.59961 8.70614 7.39748 9.51333 7.97477 10.474C8.44451 11.2612 8.80016 12.724 9.93561 12.724C10.4795 12.724 11.0978 12.7418 11.5112 12.3242C12.0165 11.8132 12.0256 11.0674 12.1818 10.4076C12.9557 7.29613 14.4338 4.40686 16.5003 1.96496C16.6272 1.81224 16.7561 1.66103 16.8867 1.51147C17.1521 1.2113 17.4337 0.926036 17.7301 0.656854C17.7703 0.62011 17.8401 0.544861 17.9233 0.458929C17.9994 0.380745 18.0211 0.263939 17.9781 0.163334C17.9352 0.0627278 17.836 -0.00183838 17.7272 3.99086e-05C16.0193 0.0546276 11.9558 0.954328 9.66732 7.86502C9.66732 7.86502 6.18027 5.43545 4.03442 7.32513Z" fill="white"/>
</svg>
