<svg width="178" height="126" viewBox="0 0 178 126" fill="none" xmlns="http://www.w3.org/2000/svg">
<path d="M174.565 28.6218L136.99 15.9229C135.626 15.4639 134.146 16.194 133.685 17.5583C133.224 18.9226 133.956 20.4027 135.32 20.8637L172.537 33.4416L155.018 41.9823C154.291 41.4917 153.475 41.1152 152.589 40.884L100.043 27.1511C98.373 18.5583 87.7932 14.9518 81.2948 21.0671C79.0457 23.1837 77.7558 26.1685 77.7558 29.2563V29.3133C77.7742 32.9489 80.7834 35.9066 84.4642 35.9066H93.5365C95.8791 35.9066 98.2221 34.6842 99.4373 32.3829L148.44 45.1899C132.956 52.7387 98.1978 69.6848 93.767 71.8453C90.6393 73.3698 87.1545 73.2697 84.233 71.8453L5.46305 33.4416L85.517 6.38609C87.7626 5.62676 90.2371 5.62676 92.4827 6.38609L123.738 16.9496C125.102 17.4102 126.582 16.6791 127.043 15.3141C127.504 13.9498 126.772 12.4697 125.408 12.0087L94.1526 1.44526C90.8295 0.322609 87.1702 0.322609 83.8471 1.44526L3.43436 28.6218C-0.837893 30.0667 -1.22347 35.9838 2.83705 37.9631L44.1056 58.0832C41.8352 68.8768 38.3689 80.4972 34.6015 90.8114C33.0592 95.0294 34.388 99.7216 37.9072 102.488C49.8169 111.848 63.8887 119.079 78.3114 123.727C85.089 125.911 92.6464 125.995 99.6869 123.727C114.114 119.077 128.187 111.843 140.091 102.488C143.623 99.7109 144.934 95.0165 143.396 90.8114C139.709 80.726 136.195 69.0298 133.893 58.0842L153.305 48.6201V87.8659C149.987 88.12 147.363 90.8948 147.363 94.2767V101.875C147.363 103.004 147.854 104.019 148.629 104.725L147.66 119.37C147.471 122.231 149.746 124.663 152.614 124.663H159.211C162.078 124.663 164.354 122.232 164.165 119.37L163.197 104.725C163.972 104.019 164.462 103.005 164.462 101.875V94.2763C164.462 90.8945 161.838 88.1197 158.52 87.8655V48.5634C158.52 47.7621 158.394 46.9857 158.169 46.2486L175.163 37.9635C179.218 35.9862 178.845 30.0688 174.565 28.6218ZM93.5365 30.6915H84.4642C83.6587 30.6915 82.9748 30.0483 82.9709 29.3001V29.2563C82.9709 27.5763 83.6447 26.017 84.8689 24.8648C88.6242 21.3306 94.778 23.8746 95.0218 28.9576C95.0798 30.1748 94.2962 30.6915 93.5365 30.6915ZM135.563 84.1082C121.474 95.1344 101.481 103.022 94.5938 104.335C93.1791 104.605 92.2511 105.97 92.5209 107.385C92.7907 108.8 94.1602 109.728 95.5708 109.458C102.774 108.084 122.511 100.414 137.327 89.3261C137.691 90.3653 138.114 91.5485 138.498 92.6016C139.263 94.6946 138.608 97.0191 136.868 98.3873C122.825 109.424 108.028 115.559 98.0872 118.763C92.1496 120.676 85.7006 120.629 79.911 118.763C69.9703 115.559 55.1728 109.424 41.1302 98.3873C39.3907 97.0198 38.7343 94.6956 39.5002 92.6012C39.5155 92.5595 39.5305 92.5171 39.5458 92.4754C39.9248 91.4372 40.3448 90.2589 40.6712 89.3254C55.1374 100.148 74.82 108.008 82.4251 109.459C83.8415 109.728 85.2055 108.801 85.4753 107.386C85.7451 105.971 84.8171 104.606 83.4028 104.336C76.9012 103.097 56.8392 95.3757 42.4357 84.1078C44.5534 77.6317 47.0073 69.309 48.9362 60.4383L81.9474 76.5323C86.3427 78.6754 91.4855 78.7592 96.0526 76.5323L129.062 60.439C130.991 69.3093 133.445 77.632 135.563 84.1082ZM152.881 119.447L153.789 105.735H158.036L158.943 119.447H152.881ZM159.247 94.276V100.52H152.579V94.276C152.579 93.6143 153.137 93.0553 153.799 93.0553H158.026C158.687 93.0556 159.247 93.6143 159.247 94.276Z" fill="#008EFF" fill-opacity="0.1"/>
</svg>
