<svg width="15" height="15" viewBox="0 0 15 15" fill="none" xmlns="http://www.w3.org/2000/svg">
<path d="M13.6197 1.30959C13.2495 0.894199 12.81 0.564736 12.3263 0.34003C11.8425 0.115324 11.3241 -0.000220279 10.8006 3.15269e-07C10.277 0.00022091 9.75867 0.116202 9.2751 0.341316C8.79153 0.566429 8.35224 0.896263 7.98232 1.31197L7.49945 1.86039L7.0206 1.31315L7.01749 1.30966C6.64747 0.894464 6.20819 0.565112 5.72474 0.340409C5.24129 0.115706 4.72313 5.32168e-05 4.19985 5.32168e-05C3.67656 5.32168e-05 3.1584 0.115706 2.67495 0.340409C2.1915 0.565112 1.75222 0.894464 1.38221 1.30966L1.16709 1.55104C0.419816 2.38956 0 3.52683 0 4.71268C0 5.89852 0.419816 7.03579 1.16709 7.87431L6.84449 14.2448L7.48563 14.9986L7.50092 14.9814L7.51751 15L8.11821 14.2888L13.8348 7.87421C14.581 7.03502 15 5.898 15 4.71257C15 3.52714 14.581 2.39012 13.8348 1.55093L13.6197 1.30959ZM13.1302 7.08381L7.50092 13.4006L1.87146 7.08381C1.311 6.45492 0.996141 5.60197 0.996141 4.71259C0.996141 3.82321 1.311 2.97025 1.87146 2.34136L2.0866 2.09999C2.64679 1.47141 3.40647 1.11813 4.19869 1.1178C4.99091 1.11746 5.75083 1.4701 6.31144 2.09821L7.4973 3.4531L8.6888 2.09999C8.96631 1.78859 9.29577 1.54158 9.65836 1.37305C10.0209 1.20452 10.4096 1.11778 10.802 1.11778C11.1945 1.11778 11.5831 1.20452 11.9457 1.37305C12.3083 1.54158 12.6377 1.78859 12.9153 2.09999L13.1304 2.34133C13.69 2.97074 14.0042 3.82352 14.0042 4.7126C14.0042 5.60168 13.6899 6.45444 13.1302 7.08381Z" fill="#DE2121"/>
</svg>
