<svg width="23" height="21" viewBox="0 0 23 21" fill="none" xmlns="http://www.w3.org/2000/svg">
<path d="M11.9692 0.172422C11.8332 0.0606829 11.6656 0 11.4931 0C11.3206 0 11.153 0.0606829 11.017 0.172422L0 9.2228L0.952967 10.4925L2.3 9.38596V19.3846C2.30081 19.8128 2.46262 20.2232 2.75 20.5259C3.03738 20.8287 3.42692 20.9991 3.83333 21H19.1667C19.5731 20.9991 19.9626 20.8287 20.25 20.5259C20.5374 20.2232 20.6992 19.8128 20.7 19.3846V9.39323L22.047 10.4998L23 9.23007L11.9692 0.172422ZM13.0333 19.3846H9.96667V12.9229H13.0333V19.3846ZM14.5667 19.3846V12.9229C14.5663 12.4946 14.4046 12.084 14.1171 11.7811C13.8296 11.4783 13.4399 11.3079 13.0333 11.3075H9.96667C9.56013 11.3079 9.17035 11.4783 8.88288 11.7811C8.59542 12.084 8.43374 12.4946 8.43333 12.9229V19.3846H3.83333V8.12674L11.5 1.83469L19.1667 8.13482V19.3846H14.5667Z" fill="#008EFF"/>
</svg>
