<svg width="41" height="14" viewBox="0 0 41 14" fill="none" xmlns="http://www.w3.org/2000/svg">
<path d="M0 11.8143V4H1.23637V10.8276H5.72894V11.8143H0Z" fill="#FF0000"/>
<path d="M6.57971 5.08753V4H7.68143V5.08753H6.57971ZM6.57971 11.8143V6.13263H7.68143V11.8143H6.57971Z" fill="#FF0000"/>
<path d="M10.9621 11.8143L8.54445 6.13263H9.72574L11.5558 10.6844L13.343 6.13263H14.5243L12.1312 11.8143H10.9621Z" fill="#FF0000"/>
<path d="M16.2442 8.45623H19.8432C19.8391 7.92573 19.6841 7.51724 19.378 7.23077C19.072 6.94076 18.6374 6.79576 18.0743 6.79576C17.5316 6.79576 17.1032 6.93722 16.789 7.22016C16.4789 7.50309 16.2973 7.91512 16.2442 8.45623ZM19.8187 9.97878H20.9082C20.7899 10.6048 20.4757 11.0981 19.9656 11.4589C19.4556 11.8196 18.8129 12 18.0376 12C17.1277 12 16.4095 11.7347 15.8831 11.2042C15.3567 10.6737 15.0936 9.95049 15.0936 9.03448C15.0936 8.06543 15.3547 7.30858 15.877 6.76393C16.3993 6.21927 17.1195 5.94695 18.0376 5.94695C18.9802 5.94695 19.7085 6.19806 20.2227 6.70027C20.7409 7.20248 21 7.91158 21 8.82759C21 8.9443 20.998 9.03095 20.9939 9.08753C20.9939 9.14412 20.9898 9.19894 20.9816 9.25199H16.2504C16.2626 9.84969 16.434 10.313 16.7645 10.6419C17.095 10.9673 17.5541 11.13 18.1417 11.13C18.5905 11.13 18.9598 11.0309 19.2495 10.8329C19.5433 10.6313 19.733 10.3466 19.8187 9.97878Z" fill="#FF0000"/>
<rect x="24" width="17" height="14" rx="5" fill="#FF0000"/>
<path d="M37 7L30.25 10.4641V3.5359L37 7Z" fill="white"/>
</svg>
