<svg width="30" height="24" viewBox="0 0 30 24" fill="none" xmlns="http://www.w3.org/2000/svg">
<g opacity="0.7">
<path d="M29.7922 8.87804C29.4615 8.45859 28.8535 8.38687 28.4342 8.71738L24.104 12.1316C24.5175 12.4018 24.8802 12.7638 25.1579 13.211C25.2366 13.3376 25.305 13.4678 25.3657 13.5998L29.6317 10.2361C30.0511 9.90548 30.123 9.29738 29.7922 8.87804Z" fill="black"/>
<path d="M8.89154 7.23672C10.8899 7.23672 12.5099 5.61672 12.5099 3.61836C12.5099 1.61999 10.8899 0 8.89154 0C6.89317 0 5.27318 1.61999 5.27318 3.61836C5.27318 5.61672 6.89317 7.23672 8.89154 7.23672Z" fill="black"/>
<path d="M21.2708 13.5698C22.0901 13.0613 23.1662 13.3131 23.6749 14.1322C24.1835 14.9512 23.9316 16.0277 23.1126 16.5361L16.9258 20.3775C16.3878 20.7115 15.7124 20.7274 15.1602 20.4221C14.6069 20.1163 14.2623 19.5352 14.2591 18.903L14.227 12.5183C14.2261 12.3167 14.0624 12.154 13.8608 12.1544C13.6593 12.1548 13.4962 12.3182 13.4962 12.5197C13.4962 23.3021 13.519 13.9743 13.5293 23.9638L4.24918 23.7938L4.24869 12.5174C4.24869 12.327 4.09528 12.1722 3.90493 12.1709C3.71457 12.1694 3.55878 12.3219 3.55606 12.5123V12.5183L3.49159 20.8121C3.48683 21.7733 2.70606 22.5492 1.74603 22.5492H1.73708C0.772867 22.5443 -0.00473704 21.7588 2.17258e-05 20.7945L0.0644916 12.5007C0.0759353 10.2339 1.92936 8.38992 4.196 8.38992H5.94836L8.11666 14.0132L7.66287 11.7276C7.62956 11.5597 7.65653 11.3852 7.73901 11.2351L8.45011 9.94185L7.81901 8.79408C7.72496 8.62322 7.84903 8.41383 8.04391 8.41383H9.77418C9.96917 8.41383 10.093 8.62322 9.99909 8.79408L9.36923 9.93947L10.079 11.2303C10.1631 11.3833 10.1894 11.5614 10.1532 11.7323L9.62938 14.0132C10.8749 10.7829 10.4022 12.1956 11.8696 8.38992H13.5872C15.8539 8.38992 17.7073 10.2341 17.7187 12.5007L17.735 15.7651L21.2708 13.5698Z" fill="black"/>
</g>
</svg>
