<svg width="21" height="21" viewBox="0 0 21 21" fill="none" xmlns="http://www.w3.org/2000/svg">
<path d="M1.10526 19.4372L5.06874 15.4737H17.6842C18.2705 15.4737 18.8327 15.2408 19.2473 14.8262C19.6618 14.4117 19.8947 13.8494 19.8947 13.2632V3.31579C19.8947 2.72952 19.6618 2.16727 19.2473 1.75271C18.8327 1.33816 18.2705 1.10526 17.6842 1.10526H3.31579C2.72952 1.10526 2.16727 1.33816 1.75271 1.75271C1.33816 2.16727 1.10526 2.72952 1.10526 3.31579V19.4372ZM1.10526 21H0V3.31579C0 2.43639 0.349341 1.593 0.971172 0.971172C1.593 0.349341 2.43639 0 3.31579 0H17.6842C18.5636 0 19.407 0.349341 20.0288 0.971172C20.6507 1.593 21 2.43639 21 3.31579V13.2632C21 14.1426 20.6507 14.9859 20.0288 15.6078C19.407 16.2296 18.5636 16.5789 17.6842 16.5789H5.52632L1.10526 21ZM4.42105 4.42105H16.5789V5.52632H4.42105V4.42105ZM4.42105 7.73684H16.5789V8.8421H4.42105V7.73684ZM4.42105 11.0526H13.2632V12.1579H4.42105V11.0526Z" fill="black" fill-opacity="0.5"/>
</svg>
