<svg width="20" height="22" viewBox="0 0 20 22" fill="none" xmlns="http://www.w3.org/2000/svg">
<g opacity="0.5">
<path d="M19.2891 16.9267C18.6637 16.3683 18.1162 15.728 17.6613 15.0232C17.1646 14.0504 16.867 12.988 16.7858 11.8984V8.68912C16.7901 6.97768 16.1703 5.32357 15.043 4.03758C13.9157 2.75159 12.3584 1.92224 10.6637 1.70534V0.867288C10.6637 0.637269 10.5724 0.416671 10.4101 0.254023C10.2477 0.0913748 10.0275 0 9.79788 0C9.56826 0 9.34805 0.0913748 9.18568 0.254023C9.02332 0.416671 8.9321 0.637269 8.9321 0.867288V1.71833C7.25258 1.95086 5.71409 2.78523 4.60158 4.0669C3.48907 5.34857 2.87793 6.99069 2.88134 8.68912V11.8984C2.80012 12.988 2.50246 14.0504 2.00583 15.0232C1.55892 15.7264 1.0202 16.3666 0.403971 16.9267C0.334793 16.9876 0.279351 17.0625 0.241332 17.1466C0.203312 17.2306 0.183588 17.3217 0.183472 17.414V18.2975C0.183472 18.4698 0.251798 18.635 0.373421 18.7569C0.495043 18.8787 0.659999 18.9472 0.831999 18.9472H18.861C19.033 18.9472 19.198 18.8787 19.3196 18.7569C19.4412 18.635 19.5096 18.4698 19.5096 18.2975V17.414C19.5095 17.3217 19.4897 17.2306 19.4517 17.1466C19.4137 17.0625 19.3583 16.9876 19.2891 16.9267ZM1.53241 17.6479C2.1358 17.0639 2.66707 16.4096 3.11481 15.6989C3.74039 14.524 4.10539 13.2276 4.18488 11.8984V8.68912C4.15916 7.92775 4.28665 7.16898 4.55976 6.45799C4.83287 5.74701 5.24601 5.09834 5.77458 4.55063C6.30315 4.00292 6.93635 3.56736 7.63646 3.26989C8.33657 2.97241 9.08928 2.81911 9.84976 2.81911C10.6103 2.81911 11.363 2.97241 12.0631 3.26989C12.7632 3.56736 13.3964 4.00292 13.9249 4.55063C14.4535 5.09834 14.8667 5.74701 15.1398 6.45799C15.4129 7.16898 15.5404 7.92775 15.5146 8.68912V11.8984C15.5941 13.2276 15.9591 14.524 16.5847 15.6989C17.0325 16.4096 17.5637 17.0639 18.1671 17.6479H1.53241Z" fill="black"/>
<path d="M10.0398 21.2206C10.8217 21.2102 11.5721 21.0407 12.1582 20.742C12.7444 20.4433 13.1284 20.0347 13.2424 19.5884H6.71296C6.83023 20.0468 7.23224 20.465 7.8442 20.7653C8.45616 21.0655 9.23639 21.2273 10.0398 21.2206Z" fill="black"/>
</g>
</svg>
