<svg width="22" height="22" viewBox="0 0 22 22" fill="none" xmlns="http://www.w3.org/2000/svg">
<g opacity="0.5">
<path fill-rule="evenodd" clip-rule="evenodd" d="M19.4524 21.2208C19.4524 21.2208 21.2208 21.2208 21.2208 19.4524C21.2208 17.684 19.4524 12.3788 10.6104 12.3788C1.7684 12.3788 0 17.684 0 19.4524C0 21.2208 1.7684 21.2208 1.7684 21.2208H19.4524ZM1.77724 19.5514V19.5479V19.5514ZM1.80731 19.4524H19.4135C19.4218 19.4514 19.43 19.4503 19.4383 19.4489L19.4524 19.4453C19.4506 19.0103 19.1801 17.7017 17.9811 16.5027C16.8281 15.3497 14.6583 14.1472 10.6104 14.1472C6.56077 14.1472 4.39271 15.3497 3.23971 16.5027C2.04074 17.7017 1.77194 19.0103 1.7684 19.4453C1.78134 19.4478 1.79431 19.4502 1.80731 19.4524ZM19.4453 19.5514V19.5479V19.5514ZM10.6104 8.84201C11.5484 8.84201 12.448 8.46938 13.1113 7.8061C13.7746 7.14282 14.1472 6.24322 14.1472 5.3052C14.1472 4.36719 13.7746 3.46759 13.1113 2.80431C12.448 2.14103 11.5484 1.7684 10.6104 1.7684C9.67239 1.7684 8.77279 2.14103 8.10951 2.80431C7.44623 3.46759 7.07361 4.36719 7.07361 5.3052C7.07361 6.24322 7.44623 7.14282 8.10951 7.8061C8.77279 8.46938 9.67239 8.84201 10.6104 8.84201ZM15.9156 5.3052C15.9156 6.71223 15.3567 8.06163 14.3618 9.05655C13.3668 10.0515 12.0174 10.6104 10.6104 10.6104C9.20338 10.6104 7.85398 10.0515 6.85906 9.05655C5.86414 8.06163 5.3052 6.71223 5.3052 5.3052C5.3052 3.89818 5.86414 2.54878 6.85906 1.55386C7.85398 0.55894 9.20338 0 10.6104 0C12.0174 0 13.3668 0.55894 14.3618 1.55386C15.3567 2.54878 15.9156 3.89818 15.9156 5.3052Z" fill="black"/>
</g>
</svg>
