<svg width="83" height="69" viewBox="0 0 83 69" fill="none" xmlns="http://www.w3.org/2000/svg">
<path d="M76.7737 34.9943L65.9472 24.3391C65.5538 23.953 64.9218 23.9572 64.5348 24.3503C64.148 24.7434 64.153 25.3758 64.5461 25.7626L75.2691 36.3162L67.805 36.3319C67.6363 36.0413 67.4179 35.7751 67.1515 35.5475L51.3387 22.0342C52.1991 18.794 49.1559 15.7832 45.8946 16.8046C44.7658 17.1582 43.8225 17.9712 43.3066 19.0352L43.297 19.0549C42.6958 20.3108 43.2385 21.8329 44.507 22.448L47.6333 23.9641C48.4406 24.3556 49.4523 24.3258 50.2556 23.7359L65.002 36.338C58.4049 36.3519 43.595 36.3832 41.7071 36.3872C40.3745 36.3899 39.1904 35.7731 38.4216 34.794L17.6947 8.39678L49.8029 12.451C50.7037 12.5646 51.5564 12.9781 52.2033 13.615L61.2087 22.4783C61.602 22.8651 62.234 22.8603 62.6211 22.467C63.0079 22.0739 63.003 21.4415 62.6099 21.0547L53.6044 12.1915C52.6469 11.2493 51.3859 10.6378 50.0531 10.4693L17.801 6.39682C16.0873 6.18082 14.9657 8.15546 16.0342 9.51609L26.8933 23.3459C24.3072 26.686 21.1708 30.1112 18.149 33.036C16.9126 34.2318 16.5864 36.0708 17.3369 37.6121C19.8768 42.828 23.5177 47.6714 27.7111 51.6833C29.6818 53.5684 32.272 54.8603 35.0772 55.2553C40.826 56.0638 46.8845 55.9227 52.5499 54.6879C54.2311 54.3212 55.4672 52.9226 55.6403 51.2166C56.0548 47.1248 56.7985 42.5071 57.8342 38.3505L66.1053 38.333L59.547 51.8573C58.3612 51.3905 56.9934 51.9082 56.4282 53.0737L55.1584 55.6922C54.9698 56.0813 54.9692 56.5127 55.1183 56.8857L52.3373 61.7705C51.794 62.7248 52.1716 63.943 53.16 64.4223L55.4333 65.5247C56.4213 66.0037 57.6117 65.5465 58.0248 64.5286L60.1384 59.3201C60.5237 59.2062 60.862 58.9387 61.0507 58.5496L62.3206 55.9309C62.8858 54.7655 62.4452 53.3708 61.3443 52.7288L67.9121 39.1851C68.046 38.9089 68.1322 38.6203 68.1778 38.3286L75.4184 38.3133C77.1463 38.3096 78.0065 36.208 76.7737 34.9943ZM48.5048 22.1669L45.3785 20.6508C45.1009 20.5162 44.9727 20.1803 45.0964 19.9218L45.1037 19.9067C45.3845 19.3278 45.8772 18.903 46.4916 18.7106C48.3763 18.1202 50.0718 20.0252 49.3064 21.8176C49.123 22.2468 48.7666 22.2939 48.5048 22.1669ZM54.0609 47.5975C47.3633 49.0429 39.1553 48.42 36.5627 47.7215C36.0301 47.5781 35.4821 47.8936 35.3387 48.4261C35.1953 48.9588 35.5121 49.5075 36.0433 49.6501C38.7553 50.3805 46.8383 51.0355 53.7969 49.6905C53.7488 50.1095 53.6966 50.5877 53.6532 51.015C53.567 51.8641 52.9527 52.5556 52.1246 52.7363C45.4412 54.1928 39.3165 53.8345 35.3556 53.2771C32.9896 52.9444 30.7752 51.8505 29.092 50.2397C26.2017 47.4746 22.1277 42.8875 19.1328 36.7377C18.7619 35.9758 18.9241 35.0652 19.538 34.4714C19.5502 34.4596 19.5625 34.4475 19.5747 34.4356C19.8788 34.1412 20.2204 33.8054 20.4889 33.5382C23.6655 39.6851 29.1348 45.6828 31.5131 47.4537C31.9562 47.7831 32.5812 47.6915 32.9105 47.2492C33.2399 46.8068 33.1484 46.1811 32.7061 45.8518C30.6727 44.3382 25.0495 38.325 21.9689 32.0351C23.7809 30.1572 26.0173 27.6993 28.1644 24.9647L36.8508 36.0273C38.0073 37.5003 39.7655 38.3886 41.7115 38.3844L55.7759 38.3547C54.9584 41.7337 54.4132 45.0118 54.0609 47.5975ZM54.1236 62.6696L56.7276 58.096L58.1914 58.8058L56.2125 63.6826L54.1236 62.6696ZM60.5234 55.0592L59.48 57.2108L57.1822 56.0965L58.2255 53.9449C58.3361 53.7169 58.6221 53.6176 58.8502 53.7282L60.3066 54.4345C60.5345 54.5452 60.634 54.8312 60.5234 55.0592Z" fill="#008EFF" fill-opacity="0.1"/>
</svg>
