<svg width="19" height="19" viewBox="0 0 19 19" fill="none" xmlns="http://www.w3.org/2000/svg">
<path d="M8 16C9.77498 15.9996 11.4988 15.4054 12.897 14.312L17.293 18.708L18.707 17.294L14.311 12.898C15.405 11.4997 15.9996 9.77544 16 8C16 3.589 12.411 0 8 0C3.589 0 0 3.589 0 8C0 12.411 3.589 16 8 16ZM8 2C11.309 2 14 4.691 14 8C14 11.309 11.309 14 8 14C4.691 14 2 11.309 2 8C2 4.691 4.691 2 8 2Z" fill="#008EFF"/>
<path d="M9.41201 6.58599C9.79101 6.96599 10 7.46799 10 7.99999H12C12.0009 7.47442 11.8976 6.95389 11.6961 6.46848C11.4946 5.98307 11.1989 5.54242 10.826 5.17199C9.31201 3.65999 6.68701 3.65999 5.17401 5.17199L6.58601 6.58799C7.34601 5.82999 8.65601 5.832 9.41201 6.58599Z" fill="#008EFF"/>
</svg>
