<svg width="22" height="22" viewBox="0 0 22 22" fill="none" xmlns="http://www.w3.org/2000/svg">
<g opacity="0.5">
<path d="M19.9724 11.188V10.6104V10.0252L21.4711 8.74832C21.7474 8.51122 21.9287 8.18667 21.9829 7.83201C22.0372 7.47736 21.961 7.11544 21.7677 6.81022L19.9256 3.77007C19.7887 3.53922 19.5919 3.34747 19.3549 3.21407C19.1179 3.08067 18.849 3.0103 18.5752 3.01003C18.4056 3.00876 18.2368 3.03444 18.0757 3.08603L16.1789 3.70926C15.8514 3.49737 15.5098 3.30694 15.1564 3.13924L14.7583 1.22394C14.6869 0.874023 14.4914 0.559698 14.206 0.33599C13.9206 0.112282 13.5635 -0.00655623 13.1971 0.000279261H9.54411C9.17779 -0.00655623 8.82068 0.112282 8.53527 0.33599C8.24987 0.559698 8.05437 0.874023 7.98299 1.22394L7.5849 3.13924C7.22891 3.3069 6.88471 3.49733 6.55456 3.70926L4.69682 3.05563C4.53392 3.0143 4.36522 2.9989 4.19726 3.01003C3.9235 3.0103 3.65462 3.08067 3.41761 3.21407C3.18059 3.34747 2.98377 3.53922 2.84689 3.77007L1.00476 6.81022C0.822567 7.11499 0.754865 7.47195 0.813249 7.81998C0.871633 8.168 1.05247 8.48544 1.32479 8.71791L2.80005 10.0328V11.1956L1.32479 12.4725C1.04478 12.7066 0.858995 13.0297 0.800408 13.3845C0.741822 13.7393 0.814222 14.1028 1.00476 14.4106L2.84689 17.4507C2.98377 17.6816 3.18059 17.8733 3.41761 18.0067C3.65462 18.1401 3.9235 18.2105 4.19726 18.2108C4.36692 18.2121 4.53565 18.1864 4.69682 18.1348L6.59359 17.5116C6.92106 17.7234 7.26267 17.9139 7.61612 18.0816L8.01421 19.9969C8.08559 20.3468 8.28109 20.6611 8.56649 20.8848C8.8519 21.1085 9.20902 21.2274 9.57534 21.2205H13.2596C13.6259 21.2274 13.983 21.1085 14.2684 20.8848C14.5538 20.6611 14.7493 20.3468 14.8207 19.9969L15.2188 18.0816C15.5748 17.9139 15.919 17.7235 16.2491 17.5116L18.1381 18.1348C18.2993 18.1864 18.468 18.2121 18.6377 18.2108C18.9114 18.2105 19.1803 18.1401 19.4173 18.0067C19.6543 17.8733 19.8512 17.6816 19.988 17.4507L21.7677 14.4106C21.9499 14.1058 22.0176 13.7489 21.9592 13.4008C21.9008 13.0528 21.72 12.7354 21.4477 12.5029L19.9724 11.188ZM18.5752 16.6907L15.8979 15.8091C15.2712 16.326 14.5549 16.73 13.7826 17.0023L13.2284 19.7309H9.54411L8.98991 17.0327C8.22373 16.7527 7.51131 16.3493 6.8824 15.8395L4.19726 16.6907L2.35513 13.6506L4.47826 11.8265C4.33394 11.0397 4.33394 10.2343 4.47826 9.44755L2.35513 7.57026L4.19726 4.53011L6.87459 5.41175C7.50133 4.89484 8.21763 4.49078 8.98991 4.21849L9.54411 1.48995H13.2284L13.7826 4.18809C14.5488 4.4681 15.2612 4.87147 15.8901 5.38135L18.5752 4.53011L20.4173 7.57026L18.2942 9.39435C18.4385 10.1811 18.4385 10.9865 18.2942 11.7733L20.4173 13.6506L18.5752 16.6907Z" fill="black"/>
<path d="M11.3862 15.1707C10.46 15.1707 9.55447 14.9032 8.78429 14.4021C8.01411 13.901 7.41383 13.1888 7.05936 12.3556C6.70489 11.5223 6.61214 10.6054 6.79285 9.72077C6.97356 8.83618 7.41961 8.02362 8.07459 7.38586C8.72957 6.7481 9.56407 6.31378 10.4726 6.13783C11.381 5.96187 12.3227 6.05218 13.1785 6.39733C14.0343 6.74248 14.7657 7.32698 15.2803 8.0769C15.7949 8.82683 16.0696 9.7085 16.0696 10.6104C16.0759 11.211 15.959 11.8067 15.7259 12.3627C15.4927 12.9188 15.148 13.4239 14.7118 13.8486C14.2757 14.2733 13.7569 14.6089 13.1859 14.836C12.6148 15.063 12.003 15.1768 11.3862 15.1707ZM11.3862 7.57028C10.9736 7.56092 10.5633 7.63316 10.1801 7.78263C9.79697 7.93209 9.44893 8.15569 9.15707 8.43988C8.8652 8.72407 8.63557 9.06295 8.48207 9.43603C8.32856 9.80911 8.25437 10.2086 8.26398 10.6104C8.25437 11.0122 8.32856 11.4117 8.48207 11.7848C8.63557 12.1579 8.8652 12.4968 9.15707 12.781C9.44893 13.0652 9.79697 13.2888 10.1801 13.4382C10.5633 13.5877 10.9736 13.6599 11.3862 13.6506C11.7989 13.6599 12.2092 13.5877 12.5923 13.4382C12.9755 13.2888 13.3235 13.0652 13.6154 12.781C13.9073 12.4968 14.1369 12.1579 14.2904 11.7848C14.4439 11.4117 14.5181 11.0122 14.5085 10.6104C14.5181 10.2086 14.4439 9.80911 14.2904 9.43603C14.1369 9.06295 13.9073 8.72407 13.6154 8.43988C13.3235 8.15569 12.9755 7.93209 12.5923 7.78263C12.2092 7.63316 11.7989 7.56092 11.3862 7.57028Z" fill="black"/>
</g>
</svg>
