<svg width="263" height="273" viewBox="0 0 263 273" fill="none" xmlns="http://www.w3.org/2000/svg">
<rect x="15.4706" y="15.4706" width="27.371" height="27.371" rx="11.5" fill="#008EFF"/>
<rect x="64.2625" y="135.665" width="27.371" height="27.371" rx="11.5" fill="#008EFF"/>
<rect x="139.235" y="135.665" width="27.371" height="27.371" rx="11.5" fill="#008EFF"/>
<rect x="214.208" y="135.665" width="27.371" height="27.371" rx="11.5" fill="#008EFF"/>
<rect x="174.937" y="209.448" width="27.371" height="27.371" rx="11.5" fill="#008EFF"/>
<rect x="99.9637" y="209.448" width="27.371" height="27.371" rx="11.5" fill="#008EFF"/>
<path fill-rule="evenodd" clip-rule="evenodd" d="M63.0724 179.697H59.5023V192.787H63.0724V179.697ZM51.172 192.787H44.8417C43.7371 192.787 42.8417 193.683 42.8417 194.787V196.738C42.8417 197.842 43.7371 198.738 44.8417 198.738H111.054C112.159 198.738 113.054 197.842 113.054 196.738V194.787C113.054 193.683 112.159 192.787 111.054 192.787H104.724V169.226C104.724 166.465 102.485 164.226 99.724 164.226H99.1539H98.3937H90.8236H65.0724H57.5023H56.7421H56.172C53.4106 164.226 51.172 166.465 51.172 169.226V192.787ZM92.8236 179.697H96.3937V192.787H92.8236V179.697Z" fill="#008EFF"/>
<path fill-rule="evenodd" clip-rule="evenodd" d="M138.045 179.697H134.475V192.787H138.045V179.697ZM126.145 192.787H119.814C118.71 192.787 117.814 193.683 117.814 194.787V196.738C117.814 197.842 118.71 198.738 119.814 198.738H186.027C187.132 198.738 188.027 197.842 188.027 196.738V194.787C188.027 193.683 187.132 192.787 186.027 192.787H179.697V169.226C179.697 166.465 177.458 164.226 174.697 164.226H174.127H173.366H165.796H140.045H132.475H131.715H131.145C128.383 164.226 126.145 166.465 126.145 169.226V192.787ZM167.796 179.697H171.366V192.787H167.796V179.697Z" fill="#008EFF"/>
<path fill-rule="evenodd" clip-rule="evenodd" d="M213.018 179.697H209.448V192.787H213.018V179.697ZM201.118 192.787H194.787C193.683 192.787 192.787 193.683 192.787 194.787V196.738C192.787 197.842 193.683 198.738 194.787 198.738H261C262.105 198.738 263 197.842 263 196.738V194.787C263 193.683 262.105 192.787 261 192.787H254.67V169.226C254.67 166.465 252.431 164.226 249.67 164.226H249.1H248.339H240.769H215.018H207.448H206.688H206.118C203.356 164.226 201.118 166.465 201.118 169.226V192.787ZM242.769 179.697H246.339V192.787H242.769V179.697Z" fill="#008EFF"/>
<path fill-rule="evenodd" clip-rule="evenodd" d="M173.747 253.48H170.177V266.57H173.747V253.48ZM161.846 266.57H155.516C154.411 266.57 153.516 267.466 153.516 268.57V270.52C153.516 271.625 154.411 272.52 155.516 272.52H221.729C222.833 272.52 223.729 271.625 223.729 270.52V268.57C223.729 267.466 222.833 266.57 221.729 266.57H215.398V243.009C215.398 240.248 213.16 238.009 210.398 238.009H209.828H209.068H201.498H175.747H168.177H167.416H166.846C164.085 238.009 161.846 240.248 161.846 243.009V266.57ZM203.498 253.48H207.068V266.57H203.498V253.48Z" fill="#008EFF"/>
<path fill-rule="evenodd" clip-rule="evenodd" d="M98.7737 253.48H95.2036V266.57H98.7737V253.48ZM86.8733 266.57H80.543C79.4384 266.57 78.543 267.466 78.543 268.57V270.52C78.543 271.625 79.4384 272.52 80.543 272.52H146.756C147.86 272.52 148.756 271.625 148.756 270.52V268.57C148.756 267.466 147.86 266.57 146.756 266.57H140.425V243.009C140.425 240.248 138.187 238.009 135.425 238.009H134.855H134.095H126.525H100.774H93.2036H92.4434H91.8733C89.1119 238.009 86.8733 240.248 86.8733 243.009V266.57ZM128.525 253.48H132.095V266.57H128.525V253.48Z" fill="#008EFF"/>
<path fill-rule="evenodd" clip-rule="evenodd" d="M16.9005 45.2217L16.8907 45.2218H5.71041H5C2.23858 45.2218 0 47.4603 0 50.2218V62.8326V100.914C0 103.675 2.23857 105.914 5 105.914H5.71041C8.47183 105.914 10.7104 103.675 10.7104 100.914V67.8326H11.9005V108.054C11.9005 109.289 12.3483 110.42 13.0905 111.292V162.986C13.0905 166.3 15.7768 168.986 19.0905 168.986H21.371C24.6847 168.986 27.371 166.3 27.371 162.986V113.054H30.9412V162.986C30.9412 166.3 33.6275 168.986 36.9412 168.986H39.2217C42.5354 168.986 45.2217 166.3 45.2217 162.986V111.292C45.9639 110.42 46.4118 109.289 46.4118 108.054V57.1222H79.4932C82.2546 57.1222 84.4932 54.8836 84.4932 52.1222V50.2217C84.4932 47.4603 82.2546 45.2217 79.4932 45.2217H41.4118H40.7014H16.9005Z" fill="#008EFF"/>
<path d="M82.1132 51.027L131.078 21.5673L83.3963 53.0315L82.1132 51.027Z" fill="#008EFF"/>
<path fill-rule="evenodd" clip-rule="evenodd" d="M226.109 0H73.7828V104.724H226.109V0ZM221.348 3.57015H78.543V101.154H221.348V3.57015Z" fill="#008EFF"/>
<path fill-rule="evenodd" clip-rule="evenodd" d="M29.1721 57.6537L31.7278 54.9011C31.8659 54.7524 31.9004 54.535 31.8152 54.3508L30.7934 52.1437C30.7115 51.9669 30.5345 51.8538 30.3396 51.8538H26.7817C26.5869 51.8538 26.4098 51.9669 26.328 52.1437L25.3062 54.3508C25.221 54.535 25.2555 54.7524 25.3935 54.9011L27.9492 57.6536L25.0038 83.1446C24.9951 83.2204 25.0035 83.2963 25.0292 83.3682C25.1942 83.8298 25.8539 85.6628 26.3542 86.8733C26.8551 88.0855 27.6189 89.6963 28.1037 90.6987C28.2864 91.0764 28.8223 91.069 28.9987 90.6884L30.7671 86.8733L32.088 83.3733C32.1161 83.2987 32.126 83.2185 32.1169 83.1394L29.1721 57.6537Z" fill="white"/>
</svg>
